<mxfile host="65bd71144e">
    <diagram id="xy_kUcI_LLl9ELxtxZhE" name="Page-1">
        <mxGraphModel dx="1212" dy="629" grid="0" gridSize="10" guides="1" tooltips="1" connect="1" arrows="1" fold="1" page="0" pageScale="1" pageWidth="850" pageHeight="1100" math="0" shadow="0">
            <root>
                <mxCell id="0"/>
                <mxCell id="1" parent="0"/>
                <mxCell id="80" value="" style="rounded=0;whiteSpace=wrap;html=1;fillColor=#f5f5f5;fontColor=#333333;strokeColor=#666666;" vertex="1" parent="1">
                    <mxGeometry x="-181" y="1" width="1005" height="692" as="geometry"/>
                </mxCell>
                <mxCell id="2" value="" style="shape=image;verticalLabelPosition=bottom;labelBackgroundColor=default;verticalAlign=top;aspect=fixed;imageAspect=0;image=data:image/png,iVBORw0KGgoAAAANSUhEUgAAAhYAAAHSCAYAAACw1oLsAAAAAXNSR0IArs4c6QAAAARnQU1BAACxjwv8YQUAAAAJcEhZcwAADsMAAA7DAcdvqGQAAHwhSURBVHhe7f17VFvnnS/+vwEJISHJgBCSbQUDMcQ4lqmvYMcuX6fxLGJnnNCT7wlpJmmL42kz6ZkyaZ1zmJ66jfPr8mpzOcmZdrlOGuecXCZ0Jr84qWOPJ07jUeIhcpyYEJwYGxdjgmMh7jcJIQHfP2DvaG9dEFhgEO/XWqxlP8+jrb2fvaX92c9NcXl5eaMgIiIiioJ4eQIRERHRVDGwICIioqhhYEFERERRw8CCiIiIooaBBREREUUNAwsiIiKKGgYWREREFDUMLIiIiChqGFgQERFR1DCwICIioqhhYEFERERRw8CCiIiIooaBBREREUXNrAssli1bhm9+85tQqVTyLAojMzMTt956KxYsWCDPIiIimjFxs+ln07dt24bt27cjPj4eX331Ff7X//pf6O/vlxebtMzMTPz4xz+GRqNBW1sbnn76aXR3d8uLzZiUlBQ88sgjMBqNGBoawquvvoqPPvpIXixia9euxf3334/ExET09PTgn/7pn3DlyhV5MSIiomk3bS0WKSkp2Lt3L/bv349nn30W69evlxcJYDabER8/tkspKSlIS0uTF4l5U6m39PR0JCYmAgDUajUWL14sL0JERDQjpi2wmIr3338fnZ2dGBkZwaeffoovv/xSXoSCOH36NL766iuMjIygsbERtbW18iIR02g02Lp1K/7H//gf+Id/+Ad5NhERUVizKrC4ePEifvazn+Hhhx/Gyy+/jNHRWdNLM6t1dHTg8ccfx8MPP4xnn30WHo9HXiRi3/zmN/Htb38bS5YsgUKhkGcTERGFNasCCyIiIprbGFgQERFR1EzbrJCpzHxYv3497rvvPiQmJqKxsRFPPPFEyLwnn3wSf/VXf4UtW7ZAr9cDALq7u3H8+HH8x3/8h6QbJdysEJVKhYcffhi5ubkAgNbWVvzTP/0TOjo6xNevWLECJSUluOGGG5CYmIjR0VH09vaiuroaR44cwfDwsFhWkJCQgNtuuw2bN29GWloa4uLi4HK5UFNTg/feew8//OEPg9bNVOot3PEBQFpaGu68807k5+dDq9UiLi4Ow8PD6O7uxjvvvIP3338f5eXlWLdunWS7/oJtl4iISG7Otlh873vfw5133okFCxYgLi4OcXFxSE1Nxd1334077rhDXjyouLg4fOc738HSpUsBAH19fXjllVfEoCIuLg733XcfHnroIdx4443izIu4uDgsWLAAt99+Ox599FEYDAbJdlUqFf7+7/8ed955JwwGA+Li4oDxgZG33HILHnjgAXH2y3Rbs2YNfvazn2H9+vXQ6XTiviQkJMBgMIjHTkREFA0zc3eLMovFgjVr1uDSpUs4duwYbDYb+vr6AADx8fEoLCwMuNkHc8cdd2Dt2rWIi4vD0NAQ3njjDVy8eFGSv3HjRsTHx6Ovrw9HjhzBvn378Nprr6GzsxMYby248847/bYKlJWVITc3F3FxcRgdHUVjYyOOHTuGd955Bw6HA5mZmRHt37XSarXYvn07NBoNRkdH8Ze//AW///3vsW/fPrz88stobGwUW1tOnz6No0ePoq6uTnx9W1sbjh49iqNHj+LPf/4zXC6X39aJiIgCzcnAQqlU4pNPPsGTTz6Jt956C1VVVTh48CDcbjcAQKfT4cYbb5S/TKKoqAi33XYb4uPjMTQ0hLfeegt2u13Mt1gs2LRpkxhUPPfcc3j77bfR3NyM999/H/v370dvby8A4KabboLFYgEA5ObmYuXKlYiLi8PIyAj+7d/+DU888QTeeustHDp0CHv37sXp06dnZMZLWlqauBJnT08PXn75ZdTW1qK5uRnV1dV44okn8NprrwEA6urqcPjwYTQ2Noqv7+vrw+HDh3H48GHYbDYMDQ2JeURERMHMycCiq6sLR44ckdycGxsb0dbWBgBITEwMu7hWamoqtm3bhsTERIyMjODdd9/Fe++9JymzcuVK6HQ6AEBtba2kJQMAWlpa0N7eDsgWpcrNzYVarQYAfPnll/j3f/93yetGR0dx/PhxsYVlOnm9Xni9XgCAXq9HUVGR2BUiYLBARETRNCcDi56eHjGIEAwNDcHn80nSgomPj8c999wDo9GI0dFRfPzxx3j77bflxWA2m8Wb8KZNm7B///6Av5ycHGC8BSU1NTXgdU1NTUFv3P39/de01kSkHA4Hzp8/j9HRUcTHx6OkpARPPvkkvv/978NkMsmLExERXbM5GViMjo5OuSshLS0NmZmZAAC3241PP/006LamOgZCCDAwPkvlehodHcVLL72E//zP/xRbLjQaDdavX49f/OIX+Pu//3v+aBkREUXVnAwsrkV7ezs+++wzjI6OQqPR4N577w06M0IYnAkAR44cwUMPPRT279ixYwAgGeA4G1auHB4exquvvordu3fjrbfeQkdHB0ZHRxEXF4f8/Hzs3LmTvyRLRERRM+8CCwA4dOiQOGZCp9Phb/7mbwJaKPwDixtvvDFgbEIoAwMD4r9DvW7hwoXi+I2Z4vF4cOzYMfzP//k/8corr4hdNEuWLMHNN98sL05ERDQl8zKw8Hg8+L//9/+itbUVAGAymfDd735X8uR+8eJFcRxETk4ONmzYIOaFc/HiRXGsR05ODgoLCyX5KpUKt99+O5KSkiTp0yEuLg4JCQnyZHzyySdwOp3i//1bVgYGBsQpqGq1GlqtVswjIiKaSILBYPilPDEakpKSsGHDBiQnJyMuLg4ZGRlYt24dNmzYEPA3NDSEq1evYvHixVi5ciUSEhLQ1dWF6upqcXvh8gS33HKLOMbh/PnzYqvEggULUFRUBKVSCZfLhQ8//BBdXV1oaWmB1WqFSqVCWloa0tPTxW6StrY25Obmwmg0IiEhAStWrMDSpUuRlJSE0dFR5OfnY+PGjbj77ruhVCrFaZpdXV3ijJKEhARYrVYsXboUGRkZ+MY3voGysjKYzWaMjIwgPj4ew8PDqKurw5UrV4Ap1luw4xscHERmZiZ++tOfIicnB8PDw1CpVFi8eDHuuusuLF26FHFxcRgYGMCf//xncepsenq6WM/JyclYuHAhFi9ejFtuuQWXLl3C4OCgWN9ERERyM9JiER8fD4vFgtzc3KB/RqNR/pIZcfHiRbzxxhsYGhpCXFwc1q5diwceeEBc2Oqf//mf0dzcDIyvVJmfn4+ysjJUVlbiu9/9LrZs2QKz2Sx54u/v78drr72Gnp4eyeu2bduGLVu2YMGCBXj//ffR1dUlviaUaNSbWq3GmjVr8MMf/hCVlZX4b//tv6GgoEBcv+O9995DS0uLWP7ChQviNNr4+HisXLkSJSUlyMrK8tsqERFRcDMSWMxmdrsd7777LkZGRsTgQlgSvKOjA7/5zW/w5ptvoq2tTfKbIB6PB1evXsXRo0dx8uRJvy2OBSy/+c1vUFdXJ45lGBkZwVdffYUDBw7gnXfekZSfLp2dnTh//jz6+vrEmS+jo6Po6+tDbW0tnnrqqYB1Nvr7+/F//s//QUNDg3i8w8PD6OzsDDp1loiIyN+0/QgZERERzT/zvsWCiIiIooeBBREREUUNAwsiIiKKGgYWREREFDUMLIiIiChqGFgQERFR1DCwICIioqhhYEFERERRw8CCiIiIooaBBREREUUNAwsiIiKKGgYWREREFDUMLIiIiChqGFgQERFR1EzLz6bfdNNN8iQiIiKaB6YlsCAiIqL5iV0hREREFDUMLIiIiChqGFgQERFR1DCwICIioqhhYEFERERRw8CCiIiIooaBBREREUUNAwsiIiKKGgYWREREFDUMLIiIiChqGFgQERFR1DCwICIioqhhYEFERERRw8CCiIiIooaBBREREUUNAwsiIiKKGgYWREREFDUMLIiIiChqGFgQERFR1DCwICIioqhhYEFERERRw8CCiIiIooaBBREREUUNAwsiIiKKGgYWREREFDUMLIiIiChq4vLy8kblifNJeXk51q1bBwBwuVx49tln0dzcLC9Gc5D/uX3rrbdw7NgxeREAQEpKCh555BEYjcaYuAaCHXewtOnmX6+NjY144okn5EWIKAZNW4tFeXk59u/fj2effRbr16+XZ88Ku3fvFr9sZ7P169fj2Wefxf79+1FeXi6m7969G/v37w/651+Orr9IPg9CGflfSUmJvOickJeXhwULFgAAzGYzMjMz5UWIKAZNW2ARLbt378ZTTz0V9S+lzMxMmM1mAEBbWxsqKyvxk5/8ZE4/qdLcJASOcyHIDSUzMxNPPfUUdu/eLaZduHABPT09AACHw8HPFtE8MWsDi5SUFOzduxc5OTnyrKgwm81QKBQAgL6+PnR3d8uLzBlDQ0N48cUX8dBDD4l/Bw8elBejWWj9+vW47777kJiYCAA4ffq05DyePn1a/pJZZ/369fjJT34CjUYjSe/u7saePXvw0EMPsRuEaB6ZtYEFUaxLSUnBHXfcIQYVb731VkBAePDgwRkZD0FEFC3TNnhTGCw2NDSEV199FR999BFKSkpw5513AuNPZgAkzb/CoDL/cv78B9bJn/T83weyAWzvv/8+1q5dC41Gg7feegtWqzVoS0hjYyP++Mc/4sc//nHA01ewwWeZmZkBZdva2vD000+LLSC7d++WvJf/dvxff/r06YCbisD/WP3LCduWH7s/+aA9/2P3f53/e/jvY7D0cNsUzpHZbA54EpcfX6R109bWhq+++goFBQVi/e7atSvgHMoHXobbT/9jDzd4M9g5nsrgx2CfB/+6lV83ofgfk0Bet/LjnmjwZrjzIAhWD21tbXC73UG7KeWfJfnxyT+/CPLZifT7gohml+vWYrFu3bqAL8itW7cG/ZKSKy8vx/e//33Jl1JiYiK+//3vBx3o9s1vfjMgUAjFv4vEX05OjqT/uKSkBJWVlSG3K/Q5y29+OTk52Lt3L1JSUrB8+XLx9VlZWUhJSZGUjZRw7BMN+Lvzzjsl+5OYmIg77rhjyu+LINvUaDT48Y9/HHDTKCgoEActRlI3/oxGIwoKCsT/6/V66HQ6SRn4vXewa0i+n4mJibjvvvtCDqREmHN85513RmVwbFpamlhHE3XHCV2D8s8Mxj9LweptIpGeh1D1MFXBPr8YP8+PPfZY0HNyLd8XRDSzrltg4XK5sG/fPlRWVqKtrQ0YvzEsX74cx44dk6QLZX/yk5/AbDaLNxn//ujGxkYAwMaNGwO+YIXXP/TQQzh27BieeOIJvPjiixgaGgLGn66EfuCPPvoIP/7xjyX93MK2hZHt69evx+233w4EGd9w7tw5AMA999wDjUYjeW/hPY1GI4qKivDFF1/A5XIBAJqamsLeWKJBGKS6b98+8X0XLFiAvLw8edGICdv0r0+NRoPa2lrJGIHExESsWLECiLBu5IRzvWfPHjQ3N4t998LfW2+9BfhdQ3LCfsr3qbi4WF4UGL/pbt26FfC7Pvxfe/PNN1/zTW3RokXivzs6OiR5ct/+9rdhNBqBEPtjNBrx7W9/W/aq8CI5DxNd6/v37w/5WQpm/fr14uc32PuGCnbDfV8Q0exy3QKLzz//HM3Nzeju7kZ1dbWY7v9lG8yKFSvEJ51169aJT+jCU1dycjL0er3kNcJ7TYYwUt9/2wqFAmazWbIPtbW1ki6I1157DXq9XpxxotFoUFlZif3790ue0hYtWoTm5mb85Cc/wUPXONhS/oX/0HgAJVddXY3u7m40Nzfj888/B8ZvrmlpafKiERO26T8DwOVy4d133wUAnD17VrzpQDYbJ1zd+PPfnj/hKX7//v2SrjP56+G3nwDw7rvvioGVTqcLuF4ASFqTcnJyxOtMeGoWroWZkJKSgqysLGC8Lv74xz+Kef7HMplWr0jPw0TX+mSDYf/tHT9+XPxcfvTRR2hpaQFCBLtT/b4gopl33QKL6RLsC/+rr76S/D+ckpKSgC/YcCazbX8Gg0GeFPMiPWZ5uYGBAfT29or/F5rw9+3bJz7Fz7RrDcggu3YmExTMFPl5mOq1TkTzy5wOLN566y3JU/pDDz2EH//4x0EHMUYiJSUFGzduBGStANcy5c+/Cd7/L1RT8WzjPw4g2qZaN7fddpvYmiB0kfg3x09EPtXYP2gJRj4FVPgL1io0Gf5dYaG6gGbCVM8DEVEwcyKw8G+F8G9alw/eKikpCTpoMVJ6vR7JyckAgJaWFnHGgNAMLfDfh9tvv10cbJaSkoIf/vCH6O3thcPhAIL0fQtlUlJSxCfv/bNgpUyHwwGfzwfIVkm0Wq2yktemubk5oroJR3iS9u8i8W9iD8Z/7E1xcbFYNtTYBv+bvv/AU4x3k917771+pafGv0sK44NC5ddveXk5ioqK0NTUBIx3W9x2221ivn+QNZlxOpGeh4mudfm50ul0AWn+/Lfnf07Wr18Pi8UCAOjp6cGFCxckryOiuWPWBhbd3d3o6+sD/GY9PPXUU3A4HGJfrH/fsLyffSp6e3sxMDAA+PWrB2tu/+ijj1BbWwvIZmTs27dP7PO12WziF6j/WBD/MtM5K2SyswT8bzT+9SqfMRANkdRNOEIw4L+f8hkDckajEfv27ZMcU1tbG9544w15UUB205fX7/e//32o1WrAr+ss3FLd4Rw8eFAcHIzx4ML/PArH9cYbb4iDFv3rTMgPdyyhRHIeIrnW/YNSoZ79Z1D589+e/zkRuh6Hhobw9ttvRxwgEdHsM2sDCwB4/vnnxS9Tf0888YQ4C8BfW1sb7Ha7PDli3d3d+MMf/iA+qWK8GTxYV8jBgweDNr8L0wY/+ugj/OIXvwi6/8JAwpmeFTIReX23tbWhqqoq4BivVSR1E478ZhzJfr7//vuS89oWwboRoc6xf0uJcHO9lqfsJ554QjJTx5/L5cIXX3yB7vFVLINdi6dPn8aePXvCHkswkZ6HUPUgXOvNzc344x//GJAfSqjttbW14Re/+MWUuzKJaHaYtgWyiGJdit/CWvJFqoiI5qtZ3WJBNJsJY3KGhoZw9uxZeTYR0bzEFgsiIiKKGrZYEBERUdQwsCAiIqKoYWBBREREUcPAgoiIiKKGgQURERFFDQMLIiIiihoGFkRERBQ1DCyIiIgoahhYEBERUdQwsCAiIqKoYWBBREREUcPAgoiIiKKGgQURERFFDQMLIiIiihoGFkRERBQ1DCyIiIgoahhYEBERUdQwsCAiIqKoYWBBREREUcPAgoiIiKKGgQURERFFDQMLIiIiihoGFkRERBQ1DCyIiIgoahhYEBERUdQwsCAiIqKoYWBBREREUcPAgoiIiKImLi8vb1SeSFJJSUlQq9VQKBSIi4uTZxNFxejoKHw+H9xuNwYHB+XZRERzAlssJqDVaqHX66FUKhlU0LSKi4uDUqmEXq+HVquVZxMRzQkMLMJISkqCRqORJxNNO41Gg6SkJHkyEdGsx8AiDLVaLU8imjG8/ohoLkowGAy/lCfSGJ1OF7Xuj1S9Cj/ftQ6FK0w4WXNVni0qtJrwjzvXIi4uDg3N3fLsCQnvc29JLkZGMKVtTLdMsw6PPbQeCQnx075/leVr8N2/XoaMNDVq6tvl2ddFZfkabF61KOx1AADx8fFwuVzyZCKiWY0tFmFEK6iIZZlmHZ7ZvQk7S/PlWUGl6lX4wd03Y8DtQ3Vt+BvrTKksX4Nf/agIqXqVPGtavHe6BRaTdsI64/VHRHMRZ4WEkZGRIU8S7SzNR5HVjAG3F0+/XItmR5+8iESqXoWfPrAK/S4v9h38RJ4tKrSa8MAdy3D05GUc+aAJGL/x5Vj08qJwdrrx5Es16Or1yLNmTKZZh0fuL0DdxQ68cOicPDtAZfkamAxqSZ0J20hWK+XFRfY6R0Tbn4rK8jXQapQzWpfbN2fhri3ZePPEJfE8B+N0OuVJRESzGlsspiBVr0LO4gU419gFALDmGuRFos7Z6cajz1Rj194T4t/PfmufsRthNBRaTbCYtDhub5EEYs2OPlQ8cVI8LnudAwNuLx5/7mMxbbqCiuvlyAdNaGzpxdYiCzLNOnk2EdGcFZMtFmVlZSgqKgIA2O12VFVVyYtEJFSLRaHVhO/cnod//rcLuHWdBQCCtkIEa2lobOmVlA31tO7/JBvJE7XQIpKRNjbgb8g7gpfersepulZJuZ2l+bAuNeAPh87h3pJcsXyw1g+hVUbgv+/yPLlgLQyRHAf89jGSlqBQ5HUvbxkQWoYSlcFja3l9yM+TvKWqsnzN2Ou6XCiymtHY0ov3TreI7yF/f/jtw5l6Z0BdCdhiQURzTcwN3iwrK0NxcTEUCgUUCgWysrKg0+lw9uxZedEJJScny5MAACW3ZCJZrcTh95uQqEzAyjwDvmjsQk//EOA3gDJRmYDHDpzGv7xzESdrrqIgLx1D3hFx0F6h1YSH77Gi9kI7HjtwGodtTXB2urFiqQENzT3iwMbNqxYhUZmA6loHBj3Dkn0RDHqG8d5HLThsa8LICJCbmYLaC+244hyQlFudb0TO4gUosppQd7EDjx04jdrzHSheswj52Wnivu0szcfqZRl48U/nsP9fz+KwrQk3ZaVgkVGLhuZu1NS347CtCbXnO7B2uRFn6tvEYzhsawoYKJlp1mFrkQXnL3ehutYhyZNbnW+EKU2DDz9rFet0sk7WXA1ZnwBwxTmAoycv47CtCStuNMDrGxHP1WFbE977qEWs62DnadUyI7YWWcTzvnnVIpjTNRj0DOM/P3VgzfIM5Gam4K3/aITJoEGqXhUwWNM16MPqfCNS9UmoqW8Lem4HBqTnj4hotgv+uDaHCS0VE6VNldAN0nilB129HtQ1dACy7pCNBQuRolPhT7ZLYZ/Mb11nQXefB2/8uVGeNe3ePHFJfEpudvShtcMNrUYpDmDMSNWgu8+DC5e/vhm/cOhcwFN3pKy5BigVCTh7sVOeNesFO0+vHr0AANi6YazFCgAUCfH4z/EBqYnKeNQ3deLT82MBln/dCrp6PWi80oNktQI6TaIkj4horoq5wGK65S1JgVajFG+Qfa4hDLh9WOkXWKzMNQTclOUyzTqYDGoxQJlIRpoav6nYiOf3bBH/JppVEMqQdwTt3W5J2r6Dn0jGbDi7XMhIU+OnD6wKuCFOhTldDa9vGFfb5tb0yVDnSTjvGalfL6AmP+eOdmkdB+Nod0OpSMBCIxdiI6LYEHOBhd1ulycFTZuqFUvTMDo6Kt4ghadOi0mLQqtJXjxqgg3eDNUvHw0vHDqHN09ckgQ0wjiC+WShUQOlIgFFVrMkqPtNxUZxfAoREX0t5gKLqqoq2Gw2eDweeDwe2Gy2KQ/elBO6QZLVSvz8b9eKN5kiqxmJynisWJomf8mcduSDJjGIaWzpRY5FP++Ci6ttLnh9w7DXOSRBnfAXbNAuEdF8FnOBBcaDi4qKClRUVEQtqMB4N0iKToU3T1yS3FwefaYazk43chYvQKpeBWeXK6DffGPBQskTbrCmdIz354eaqXA97Tv4CRpbegPGCoQ6DrnZ3OQf7HwJIj2+qZqrXURERKHMvjvYLLZiaRq8vmFxwKZA6A5J0amQtyQFZy92QqlIEAf2FVpN+KsNN8A16At4jX8Xys7SfJjTNRjyjojlrodUvQqV5Wsk6ysIYw36XV7JWIOuXg/6Xd4Ju4LqGjrg9Q3PylYdR7sbyWqlZCCmoKvXg+paB3Is+imPaQlFaAEbcPvQ55ra7Bciotkm5qabRpP/dNNUvQrbN2ehq9cTdGZEojIBBXnpGB4ZwWFbE+Li4nBb4Q3YUZyNm7JS8PTLtchZPLaugjDtsKa+HQV56fhWoQU7irMx5B3Bgdc/R6E1A40tvZOabir8xkjprTlYlp2KhIQ4rM43YkdxNoqsZnE64+p8IxamJwediioY9Ayj+Wo/Hrm/AP/lthuxozgbxWsW4Ux9G/73a5/Ji+Pzv3Ridb4Rm1cvwo7ibOwozg74bY6e/iGsWmaEyaAJObVScK3TTYXfIvkvt92I1flGJCTEYVl2KnYUZ+Nb67+eIipoaO5GRpoaRVazuP/+ddbQ3A1npxslG5eg9NYcsUzJxiXo6BnEFeeA5BzdYNZhWXYq6pu68WVrPzYWLASAgPNXkJeOQqsZ752+gs9kwaqA002JaK6JyQWyosVoNPL3GqIokgWh5pOJFgwbHR1FW1ubPJmIaFZjV0gYPt/XXRd07U7VtaKltR+rl2WE7TaZD7ZvzkKORY/qWkfQoAK8/ohojmJgEYbbPfE6BDQ5v3/9LLr7PLi3JHfe/kZGodWEbZuWwF7nCNqtJuD1R0RzEQOLMAYHB+FycbR+NHX1enDg9c+BGfrxttno1nUWtLT2h+0OcrlcGBwclCcTEc16HGMRgaSkJKjVaigUCo65oGkzOjoKn88Ht9vNoIKI5iwGFkRERBQ17AohIiKiqGFgQURERFHDwIKIiIiihoEFERERRQ0DCyIiIooazgqJAKeb0rXiVFIimi/YYjEBrVYLvV4PpVLJoIKmLC4uDkqlEnq9HlqtVp5NRBQzGFiEkZSUBI1GI08muiYajQZJSUnyZCKimMDAIgy1Wi1PIooKXltEFKsSDAbDL+WJNEan00Wt+yNVr8LPd61D4QoTTtZclWeLCq0m/OPOtYiLi0NDc7c8e1YTjjF7sQ419e3y7KgS6umvNtyALxq70NM/JC8y4wqtJjz6vdXo6vXginNAni0RHx/P36EhopjEFoswohVUzFU7S/PxzO5NEf8K6Q/vXoFktQLHP2yRZ10Xk93/a3WqrhWOdldEv9w6368tIopdDCymaGdpPp7fs2VGblw7S/Pxu8piFFpN8qxZY2dpPiwmLV471oBmR58k/fk9W0L+TbX+TtW14uF9NlQ8cVLyftfb718/iwG3Dz+4+2ak6lXybCKimMfAYgpS9SrkLF6Ac41dwDz++W9BplkH61IDztQ7caquVZL3wqFz2LX3BHbtPYHHn/sYA24v7HUOMW22BQbXqqvXgz/ZLiFFp8K3v5UjzyYiinkxuY5FWVkZioqKAAB2ux1VVVXyIhHJyMiQJwHjfenfuT0P//xvF3DrOgsAYN/BT+TFUFm+BjkWvSStsaVXUjbTrMMj9xcgWa2UlHvzxCUc+aAJGH/qX70sAy+9XR9w4/aXqlfhpw+sQkba1wMD7XUOvHDonKRcodWEB+5YhkTlWFw54Pbi6Zdr0ezoC7k/Av+ygp2l+bAuNQSkywnbrrvYEbBPkZLvu7PTjSdfqkFXrwcIU5+CUPtfZDWL//evs+2bs7C1yILj9hZs27QEXt8w/nDoHO4tyUVGmjrgfAoqy9fAZFAHvJc/p9MpTyIimvNibvBmWVkZiouLoVAooFAokJWVBZ1Oh7Nnz8qLTig5OVmeBAAouSUTyWolDr/fhERlAlbmGSQDCIVBjInKBDx24DT+5Z2LOFlzFQV56RjyjoiDNwutJjx8jxW1F9rx2IHTOGxrgrPTjRVLDWho7hEHb67ON2JhejJqL7SHHRT4d/+vFe+e+hL7//UsDtuaMDIC3FZ4AzLS1OJgSuHGfKbeKb5nV58HJRsz8eFnDvT0D+FYdTMO25qQkaZGql6FX79Yg1eOnMdhWxOOVTdLBkqm6lXYvjkLXb0eMRAKZYFWhQ0FZjg73VMe3HnFOYCjJy/jsK0JK240IFGZgOpaBwY9wwAw6f0Xgj+hjLPTjZKNS7DQqEFNfTvylqRgWVYqjKlq/PGdi7DmGmDNTUfDl91ocfYjx6IPOnh0gVaFlbkGdPV6Qg7CHRgIfS6JiOaqmOsKEVoqJkqbKqEbpPFKD7p6Pahr6ABk3SEbCxYiRafCn2yXxCfpYG5dZ0F3nwdv/LlRnjUlT7/yqaRFo7r2KpydbuQsXiD296enjLVmnL3YKZY7VdeKp1/5VPz/ZOQtSUGKToXPxuthLim0mmAxaXHc3iK2Kpyqa8WZeiesSw3i2I9EZTwar/TA0T42i2PIOyyeM6UiAQuNgWud1DV0YMDthTmd00qJaH6JucBiuuUtSYFWoxRvzH2uIQy4fVjpF1iszDWgu8+DC5eDP6livMneZFCLAcp06Or1oN/llaS1d7sBAA/csSwqg0GFQEXY7lyyYmkavL5hMTgUONrdkoBhyDsiCcT6Xd4Jz5lwXWSkBgYdRESxLOYCC7vdLk8KmjZVK5amYXR0FFfbxp5eu3o9aLzSA4tJG5Ub9bUotJrwu8piyawL+RiPU3Wt+PWLZ+D1DePB0uXXNDNjrstI1SBZrcTP/3atpM7u2pItL0pERBGKucCiqqoKNpsNHo8HHo8HNpttyoM35YRuEPnNqMhqRqIyHiuWpslfMmOEsRMtrf3ijItde0+gsaVXXhTNjj5UPHESu/aewJsnLiFZrcQj9xfMu+DC2eXCgNuLx5/7WFJnu/aewMP7bGEHyhIRUXAxF1hgPLioqKhARUVF1IIK+I0nePPEJclN6NFnqiVjGZxdLiSrFdBpEsXXbixYKJmtEaqp/NZ1FnHGw2QIQc17pye3ONWRD5rw5olLQccKyLsEghG6QIQukdlkov2fKP9a6DSJSFYr4Ozi6ppENL9M/g42j4Xqkxe6Q1J0KuQtScHZi51QKhKwdcPYVNRCqwl/teEGuAZ9Aa/x70LZWZoPc7oGQ94RsVykHO1uSatJql6FX/2oKKArZGdpPrZvzpKkrcw1wOsbFrt3BELQIEypDebC5W5093kkY0xmi4n2v7r2Krr7PBGtlDlZ1lwDktVKONrn3tgTIqJrEXPTTaPJf7rpRNMqE5UJKMhLx/DICA7bmhAXF4fbCm/AjuJs3JSVgqdfrkXO4rGbvDDdtKa+HQV56fhWoQU7irMx5B3Bgdc/R6E1A40tvZLppksW6rA634gdxdniX8nGJejoGcQV5wAamruRkaZGkdWMHcXZ2Fp0A47bW5CoTJBMyaypb8fdt92I7/71MnE7Xt8I9h38BK0d0sDiinMAcXFx2FAwts0dxdn41nqLZHrloGcY2Yt1Iadd+ovGdNOdpfn4u/9qxY7ibKTqVUhWK7G1aKye/afVIoL9H/QM472PWrBqmRF3bfm6XncUZ2PFjQacrLmKvCUpyM1MQe2FdvS7vNhQYMaA24eTNVfDTgO++7Yb4fWN4I/vNIhTYeU43ZSIYlFMLpAVLUajkb/pEAFhUarWDnfQxaLmG2G8y9GTl4MGoQAwOjqKtrY2eTIR0ZzHrpAwfL6vuy4otGZHH+oudiDHog/oZplvUvUq7CjORnefB9W1oX/FltcWEcUqBhZhuN3sH4/UC4fOobGlF9s2Lbnu026vJ+EXXg+8/nnYtS54bRFRrGJgEcbg4CBcLo7qj9TvXz+L7j7PdZ12ez0VWk0wp2sCfuFVzuVyYXBwUJ5MRBQTOMYiAklJSVCr1VAoFBxzQVMyOjoKn88Ht9vNoIKIYhoDCyIiIooadoUQERFR1DCwICIioqhhYEFERERRw8CCiIiIooaBBREREUUNZ4VEgNNNiYjmL04Xnxy2WExAq9VCr9dDqVQyqCAimofi4uKgVCqh1+uh1Wrl2STDwCKMpKQkaDQaeTIREc1TGo0GSUlJ8mTyw8AiDLVaLU8iIqJ5jveG8BIMBsMv5Yk0RqfTRa37I1Wvws93rUPhChNO1oT+1ctCqwn/uHMt4uLi0NDcLc+OiPBe95bkYkdxNnYUZyMjTY2a+nZ50esi06zDYw+tR0JC/JSPUainv9pwA75o7EJP/5C8yISE/VhsSp62uqksX4Pbb1mCmvo2DHqG5dkT2r45C49+bxWKrOYpb2O22L45CxX3FaCjZxBXnAPybAoiluussnwNvvvXy2bVd1Nl+RpsXrUo7Hc0AMTHx/N3pMJgi0UY0QoqZlKqXoWfPrAKyWoFHn/uY+zaewK79p7AC4fOiWUKrSb8rrL4uvzEeapehR/cfTMG3L6wPytO0ZVp1uGZ3ZuwszRfnkU0a1WWr8GvflSEVL1KnjUt3jvdAotJO+HnZC7eG2YSWyzCSE5OlieJdpbm4+/+qxXfWm+J6IlZrVJgY8FCDHlHwkbDFpMWBXnpaGjukTzN+7dCrLjREHIbBXnpKLSaUXuhHf/x8RV5NhDmPWbCP9z3DaTqVfhtVR1aO6QRf2X5Gtx9240R1ecV5wCOnryMY9XNE5YNZYFWhQ0FZjg73dP2xLR51SIkKhNQXevAoGdYbCVZtcwY8hz6a2juxmFbE977qOWaWismOlbhepa3jESjBU2QtyQFuZkpqL3QHvWnb2H/hRY6+V+kn9PZZjrrLBLC9fpfbrsxoE6vtTX0ZM1VHLY1hX2t/PMz3a44BxAXF4fbCm/AyMjY5y+UgYGZPx9zBVsspiBVr0LO4gU419gFALDmGuRFoi5vSQq0GiU+Pd8Ok0GNTLNOXkTC0e6WJ113hVYTLCYtjttbwv6sOF0fQ94RaDVKbCxYKM+adXaW5kueZF84dE5snXv8uY8x4PbCXucQ0yqeOCleczP9FDyXNTv6UPHESbEe7XUODLi9IVtDY8GRD5rQ2NKLrUWWCb9nKbiYXMeirKwMRUVFAAC73Y6qqip5kYhkZGTIk4DxG+R3bs/DP//bBdy6zgIA2HfwE3kxVJavQY5FL0lrbOmVlM006/DI/QVIVisl5d48cQlHPmgS/7+zNB85ixfgtWMNeLA0H8ftLZJ8QaHVhAfuWIajJy8H5AfbH3/y99y+OQt3bckW/y/f9+2bs7Bt0xK89HY9bl1nEbc94Pbi6ZdrA4KHyvI10GqUePKlGnT1eiR5Qr7JoA76WoFwfInKsZjY2ekO2J5Qp8ftLTCnq1FkNQNB9ksoV3exQ/xy9N++f33Iz5N8W4Kdpfni+wn891HYTmuHO+g1I5io7v3Jz6u9ziEeT7D98SeU3Vmaj9XLMvBFYyf0yYnie4W6nsK9p0B+rjAevLz0dj1O1bWKaZM5Vvi9d7D3RIjz6k/YL69vOOg5jFSk15ngetZZtOwszYd1qSHo8UVKXg/y751gdeBP/pkP99kUuoYbr/QgI1UjXjeOdjfu2pIdtG7htw9n6p0B50jgdDrlSTQu5rpCysrKUFxcDIVCAYVCgaysLOh0Opw9e1ZedEKhukJKbslEslqJw+83IVGZgJV5Bkkzq9BtkahMwGMHTuNf3rmIkzVXUZCXLukKKbSa8PA9VtReaMdjB07jsK0Jzk43Viw1SLopUvUqbN+chcYrPfj36masWmaEyaARt+PfXLk634iEhDgsy04NaAY+8kGT5D0Ov9+Ep17+FIdtY+n+zX47S/PxzdWL8eKfzmH/v55F7fkObC2ySJrw85ak4OYb07A634iuXg8efaYaJ2uuYt3NJqxdniFpUs8067C1yILzl7tQXesQ38ff5lWLoNUo8eFnrSGbrIUukMO2Jqy40RC0mVRo9l+Za8CQdyTkfsm7B4Qvk+4+Dx47cBqfNXQAIc7TqmVGbC2SNq8LX5i/frEGrxw5H3QfhfcccPvCdoUIXSDBrht/QjDm/55b1lowMjqKK84B1NS347CtCbXnO7B2uRFn6tvEY/Bvhl6db8TC9GSc/tyJ/Jw09A4M4YpzIKDbTLjW4uLixGvb2elGycYlKMhLF/dx++YsfOf2PMk1NjKCgGb9SK4zgfC5spi0ePPEJfzx3y9K8gXy8yp3xTmAsxc7saHAjG+uWTzlgZGRXmfXs86ibXW+EaY0TdjP6ESELpBg33UI8hn3+kbEejss6xac6LM55B3GxoKFMBmScdnRixZnP1bmpuMGsw4vHzmPm29MBYCA68Q16MPqfCNS9UkhB02zKyS04CHhHCa0VEyUNlVCN0jjlR509XpQN37z8e8O2ViwECk6Ff5kuxT0yVxw6zoLuvs8eOPPjfIsCaEb5OzFTgDAZw0dku4Q/+bKPxz6AkPeEbx54lLQZuBIZJp1sC414Ey9U4zkmx19OG4fG9hUaDVJytvrHOLTUlevB41XepCsVkCnSRTLWHMNUCoSxGOYCc5ON37/+lhAGWq/BJlmHe4tyUV3nyegBSTYeXr16AUAwNYNYy1W16ObJ1WvglajRGuHW/KeT7/yacATWKTau92ob+rEiqVp8izA73gPvP65WEen6lpxpt4pXhupehU2FpjR2NIb0GrmbzLXWaZZh1/8YJ04KDncdiPR7OjDYwdOo7vPgwdLl1/TQOaJrrPrVWfzQSSfTQBQKuJw/MMWAIAmSYH/+PgKHO1jY7wyUgPXKgp2HilyMRdYTDf5Tb7PNYQBtw8r/QKLlbkGdPd5cOFy6IE/mWYdTAa1GKCEs2JpGvpdXnF77d1uKBUJ0za2I1QQ0N49Nm4jPUU6h1s+nuOFQ+cCghlzuhpe3zCuts3cFK1I6hYAFiSr8Mj9BRhw+wKCilDnSTjvwpfSiqVp8PqGxUBzJnT1etDv8iLHokdl+Rp59pQd/7AFOYsXiIGrQAiqB9w+9LmkT6vCtZKeokbekhSk6FRii08okV5nhVYT/vv3V2PA7cNjB05HLXDr6vXgZ7+1o7GlF3dtyZ5wJkAo8mvD3/Wqs/kg0s8mAEnwPeQdEesrHEf72PfsQmNg4EHhxVxgYbfb5UlB06ZqxdI0jI6OijdIIbKdrqcF4Yup3+UVPzwXLneju8+DjQXmaRmAZk5XI1EZjwdLl+P5PVvEvwdLl4fs95zL8nNSkaxWSupYsNCogVKRgCKrWVIXv6nYiIy06/8lvu/gJ7DXOZBj0Yv7NtUbpKDZ0Yd+l1fyxOcvWD0JzOmR10mk19mt6ywzct1ZlxoCgqlomek6mw9m+2dzPou5K7Gqqgo2mw0ejwcejwc2m23KgzflhJt8slqJn//tWvFCLrKakaiMD9l8fC2EJxn/G4fwwUnRqZC3JEX+kmvmaHdjyDuCPxz6QuxO8f8L11Q7F9nrHHjzxKWgT/5X21zw+oYlMwz8/2ZiwNxEhBkRjz5TDWenG0VW8zUHF++dbsHiDC00SQp5Vljy1qtwIr3O9h38BI8/9zGS1Qr8/x4uiloAn6pX4Vc/KkKORY83T1wKaGWbKdNRZ/PBXPhszlcxF1hgPLioqKhARUVF1IIK+N3k/ccv7PL7Qs9ZvACpehWcXa6AvrmNBQslUXSw5joEeToTmtj9p3ftGh9LIeRPlvCBDPWkNB3NqrO9WfHIB03ik7//TTnUeZILdnzCuIuZ0tU7Nj7E2ekO2N9Ij0MgdLstMn69/0LrXLDpzv5dQcGuL2EMgb/JXGfRHBMBvzEbKToV/nDoi2m7IV/POsP4Nfi7ymI8s3tTwPvPBcG+SwWTvaYn63p038aKmAwspkuofnThy0NoQTh7sRNKRYJkYN9fbbgBrkFfwGv8u1B2lubDnK7BkHcE8GshkQ/Og193iBDMTIbwgQzV9HuqrhUtrf3YtmlJ1J4O6xo64PUNTykQmikvHDqHxpZeFFnN4o2rq9eD6trAgENOOD5h+rEwGNT/nEdbplmHyvI1kvMvBL/OLumXoTAeI9Iuu65eDz75og3rV0inXAsD4O7bliemFVpNWL0sA3UXO9Ds6EOzow+tHW7J9fXDu1dAq1HCNzx2bWMK11m0xkQIYzYA4NcvnpnyQNdIXc86S08Z6zpJVitDdm3NZo52d8h9j/SzORXhxsbQxGJuumk0+U83TR2f8tnV6wn6dJOoTEBBXjqGR0Zw2NYkrt62ozgbN2Wl4OmXa5GzeGzutjAlrKa+HQV56fhWoQU7isfmVB94/XMUWjPQ2NILdZIChVYzTn56NWAFuEHPMLIX65C9eAFanP3iVDT59MBgBj3DuNjcgw0FZtxWNLaPO4qzJSvNnay5ioVGTcAqe/4rM+YtScGy7FTUN3WHfC9BT/+QOE021PStzasWwWTQoHjNIsl7+q+auNNvhcVUvWrsS2f8GIQVAENNN5RPlQtW7vO/dKIgLx1rlhvF7TU0d4vTA0tvzRH3q2TjEnGqYk//ELr6PNi8ehFKb83BhpVmvHr0AuLjgVR9UsB0U5MhsG79V1StHP8dha1FNyBZrUSqXiWWE85TT/8QvL4R/MPffEPcr9X5Rhx+vynoVMzP/9KJ1flGbF79df0KxyhMN/Wf1ugZGsaGlSaoVQrxHPf0D+GLxi5sLbKIqzEGe8/P/9KJdTebsG3TEuwozsb5y13480ctsOYaUHexQ3yPSK4zuZM1V5GRpkbO4gVBywQ7r/4euGMZRkZHse/gJwGrv05GqPeRX2fXs87au90oyEtHslqJFmd/0PqYDPmxTVZmmKnxwVZHbWjuRkba2BohwY5zos9mR8+gZMVj/+u83+UNOfVbWMH4vdNXQg6o5XTT0GJygaxoMRqNXBM+igojWHSGiKJLWCRNvhAVhTbRYn6jo6Noa2uTJ9M4doWE4fNNXzP2fCQ0465elhFRMy4RXRuhy2Wi9THoa9s3ZyHHokd1rSNoUAHeGybEwCIMtzvy0doUmd+/fhbdfR7cW5IbdHwHEV07YcbLg6XLcabeyRkSESq0jnVF2escYQMx3hvCY1fIBLRaLTSa6Rl1PF9l+v3GQrgPLxHRTBKmm4cLxFwuF/r7++XJ5IeBRQSSkpKgVquhUCg45oKIaJ4ZHR2Fz+eD2+3G4OCgPJtkGFgQERFR1HCMBREREUUNAwsiIiKKGgYWREREFDUMLIiIiChqGFgQERFR1HBWSAQ43ZSIiCbCaalj2GIxAa1WC71eD6VSyaCCiIhCiouLg1KphF6vh1arlWfPGwwswkhKSuKqm0RENGkajQZJSUny5HmBgUUYarVankRERBSR+XoPSTAYDL+UJ9IYnU4Xte6PVL0KP9+1DoUrTDhZc1WeLSq0mvCPO9ciLi4ODc3d8uyo2r45C49+bxV2FGdjR3E2vrXegi8au9DTPyQvel3sLM3H3bctRU19GwY9w/LsiFSWr8F3/3oZMtLUqKlvl2dHZGdpPr7718umrW6u9ZwL19a9JbkYGcGUtjGbVJavwe23LLmm8z7fxGqdzcZru9BqwqPfW42uXg+uOAfk2RLx8fFwuVzy5JjHFoswohVUzEbbN2fhri3ZsNc5sGvvCezaewIVT5xEs6NPXvS62L45C0VWc9ifLqbo21maj2d2b+Ivz9KcUWg14XeVxdi+OUueNS1O1bXC0e6K6BeaY/keEg5nhYSRkZEhTxLtLM1HkdWMAbcXT79cO+ENOVWvwk8fWIV+lzfsL+cVWk144I5lOHryMo580CT+P1EpjQEbW3rDbmcileVrYDKoI9r3mSYc85l6J144dE6SJ/wyamuH+5qOfzJ2lubDutQwbXUlP+f+acHqYDpNdKyV5WuQY9EHXH/bN2dh26YleOntepyqa5W8ZrIqy9dAq1HiyZdqohpUCtdOslopzxLZ6xwzWt/RMl11FinhQSWUIe9IVK6NYIJ9fqab8H0OYMI6dzqd8qSYxxaLKUjVq5CzeAHONXYBAKy5BnmRqHvzxCWxZeEPh76AxaQVf+J3qgbcPvS5ot+0f61uXWdBd58Hb/y5UZ5Fs8CQdwRpC5JQaDXJs2adyvI14uek2dGHiidOip8je50DA24vHn/uYzFNCCoyzTo8s3sTdpbmy7ZIwRz5oEmsw0efqYaz043Gll4x7eF9tmkJKq6Xrl4P/mS7hBSdCt/+Vo48e96LyRaLsrIyFBUVAQDsdjuqqqrkRSISqsWi0GrCd27Pwz//2wXcus4CAEGfnoWnO3/yJ71QT1FvnrgkabGQR+OhnlCElhRBqCewUK/3J9+WfN/9n1JvXWcRjzVYK478OIOVQQRPH5G2WMjrXqhPf/LzKJR3drol9RLsKV7Yvrys/MlNXmcIUhcC/32MpMVCeGrKSBsbIBbuqVD+nv5l5Xly/udKaOlqvtqPngGPuG/BWizkrW2hzrn8OkOQczCZY4WsfLBzjxDnVZ5fZDUHPYeTEel1JpS9XnUWLZG2zoYTyb7LP+Ny8vMurzP/70bhHL3z4ZfYWmSBUpEg+V6T160gkpbf+dhiEXODN8vKylBcXAyFQgGFQoGsrCzodDqcPXtWXnRCycnJ8iQAQMktmUhWK3H4/SYkKhOwMs8gGdgnDDhKVCbgsQOn8S/vXMTJmqsoyEvHkHdEHLxZaDXh4XusqL3QjscOnMZhWxOcnW6sWGpAQ3MPGpq7YTFpUZCXLv5fsHnVIiQqE1Bd6xAHawkftF+/WINXjpyHs9ONko1LsNCoQU19O3aW5uPv/qsVO4qzkapXIVmtxNaiG8TBm8IAR2H/LSatuK3a8x3YWmTB5tWLxAFieUtScPONaVidb0RXrwePPlONkzVXse5mE9YuzxDLBTvOVcuM2FoUOFi05JZMpKck4a0Tl4IOlFygVWFDgRkDbl/YQbAna64GrU9/FpMWq5YZse7mDJy/3IXHDpxG7fkOFK9ZhPzsNHH7q/ONMKVp8OFnrejpHxLr+c0Tl/D718+K9b+zNB/fXL0YL/7pHPb/61mxzlYtM07qnAv7VpCXjqvtAyEHnQ56hvHeRy04bGvCyAiQm5mC2gvtAQPK/IOxR5+pxmFbE85e7MSd/082Pv9LJ1o7XDhW3YzDtiZkpKmRqleJ5/2wrQnHqpvFc7F51SJoNUp89LkTa5ebcL6pGz39Q8hbkiJ5/52l+dhRnI3D7zfhqZc/Fc/5tk1L0NEzKO6j/Jo9bGvCihsNkms706xDZfnYYDlh/xcaNSjZKN2W//FWlq9GslqJF/90DidOX5HkC+TnVa6mvh0jI8CGAjOKrOYpD4yM9Dq7nnUWTWqVAhsLFkq+6yYrkmtb/hn3r7fDtibJ511eZ/LvRotJC2uuATeYdXj7/SYsMibDmpsOt8cH2ydfwZprQIuzP6DeFmhVWJlrQFevJ+D7RTAwMH11PVvFXFeI0FIxUdpUCd0gjVd60NXrQV1DByDrDtlYsBApOhX+ZLsUEOH6m2qT//bNWcix6CUDGwutJlhMWhy3t4iR86m6Vpypd8K61IBMsw4vHDonNk02tvTC2Tl2o5E3Awv7/9qxBnFbzY4+HLe3ICNNjY0FC/32ZizyF55Muno9aLzSg2S1AjpNIhDiOF89egEAsHXDWIsP/Oq2tcMdMvqfDo0tveKxNzv60NrhhlajRKpeJS+KnaX5YlDh/zSUadbButSAM/VO8alKqDOLSSt2GwSri+m20KiBUpGAz8avVYzv276Dn4S9PsOpa+hAZ89g0G5AoS7sdQ5JHb169AK8vmGxlS/YNRuMcI0I1wwAvPHnRnT3ecRtCQqtJvz376/GgNuH//k7+zU/nR/5oAl/OPQFUnQq/OIH65A5wWC9cMJdZ9ezzmJdsDqTfzcCgCIhHp09g/j0/Fggr1TEifWXqIxHekrg1NG6hg4MuL0wpwfmzWcxF1hMt7wlKdBqlDh7sRMA0OcawoDbh5V+X7Arcw3o7vPgwuXgESzGv3xNBrUYoEzkri3ZeH7PFjy/Z4s4m8P/C2jF0jR4fcNioCNwtLuhVCRgoTHyhb5W5hrg9Q3japt0mlSoD5Gj3S35/wuHzokzTEIdp1BvGalf75dOk4hktQLOrpmdnuV/ww3n7ttuRJHVHBBUYDywVCoSxOtC0N49VjfpKeqQdTHdrra54PUN464t2VEdOf/e6RasWW4MCMCsuQYkq5UB14X8ZhrqmvUXKtjs6vWg3+WVBIDbN2fhwdLlaGntx89+a49aHZ+qa8WvXzwDAPjv318tBomTFe46u151Nh+EqrNg343+5yiSMWjBvscoBgMLu90uTwqaNlUrlqZhdHRUvOkKT+j+T6XTwX/w5uPPfQzrUgN+9aMi8QsiI1WDZLUSP//btWIAIgQhUxHuQzWZD5HwtFxkNUv26zcVG8X+07kgWa1Efk4qhrwjYrDgz5yuRqIyHg+WLpcc54OlywNm9My0ZkcfHjtwGs5Otxig/q6y+Jqv1wuXu6FSJgS0YGG8TzxYPQGQtGZNRAg2cyx6Sb0+v2eLpH89Va/CxgLpmIPpkKiMn7Yn/pmus/ki2t+NNLHr+403DaqqqmCz2eDxeODxeGCz2aY8eFNOeBKQX6RFVjMSlfFYsTRN/pJpEaxbwtnlChjhPl0jsifToiA8Lfuvl+H/N9XBXTNtwO3Fs//8Gbr7PHjgjmUBN2VHuxtD3hH84dAXAce4a++JgBaOmdbV68HPfmvHrvFZRQCCHsdkdPV6UF3rkLTWRSJc0ConPBH6zzDw/xNaJoTjE2ZMRXMtDqF7BQAef+7j63LNTkedzRcz+d1IY2IusMB4cFFRUYGKioqoBRUY7wZJ0akkrQe7/KZX5SxegFS9Cs4uV8ATxsaChZIn9FBNaLeus0T8hOv/hBOsWW+qPmvoQIpOhbwlKZL0UM394YQ6zmAmU/Z66O0fwoHXP4fXNxywOI5/l0cooY5vMuc8Gk7VteKlt+uBIPs72euorqEDWo0SKbqvm9brGjrg9Q0HBNryrqBg7yX0hwsm23wfrW4LgdC90t3nwWMHTocd13AtrmedYfw4n9+zRdIKOlcIDy/yLlpBsDqLluvVfTvbzdy3WQwI1VcndIcIN+OzFzuhVCSIA6gKrSb81YYb4Br0BbzGvwtlZ2k+zOkaDHlHxHLBZJp12Fo0NghQGMdRXXsV3X2egBveVAjbEmaPwO89W1r7JxXhC0+1ORb9hGsCCHViMoyNR5iNmh19eO1YA5SKBPzg7pvF+jlV14qW1n5s27Qk5M3sWs75tdi+OSug7oUbmLzpXfh/pM39zY4+NF7pwTduSpek1V3swOplGZK6uG9bHgDg+IctgN/NVHivTLMO95bkSj4nGB/LkaJT4Yd3r5CkhyJ0/XT3efBg6fIpjyvZWZqPu7Zko7Gld9qf8q93nQk35WCDs2c7IWD3H4jpL5rfjXKhxsbMdzG5jkW0+K9jkTrB3OxC2boD/usZCHPRhS8J/9f7z8VubOnFq0cv4JH7C3Dc3iJZx0L+RBtufQp5P2qwefgTrWMhHK9/K4v8PYVjDDaYUS7YcQSbmy6Um2gdi2BrLgjHGa6M/7oAod5LXjfB1jsQjl2+zoB8rjyCrC8w0TlHiPoSCOchXBn5e8r3S77f/uRrcQRbx8L/tcJ+AJCcT/l7yvfJ/7WJynjxelixNA05ixdIyoY6pxNde5Xji2PJr39MsI6F8H51FzuCfs4mI9LrDNexzvzLBsufjIm+KyMxmWsbIY5Vfhzhvhv9z1F17VXJqpobCxaG/J4Ldg7l5uM6FgwswjAajfN2rffrKdjNi4imV2X5GlhM2oBgn4ILFTD6Gx0dRVtbmzw55gWGgyTy+aTNizQz3jvdAqUiQWzhIaLpJayN478OC4WWqldhR3E2uvs8qK4NvQjYfL2HxNzKm9GmUs2tgUyx4IpzAHFxcdhQYL6mnzsnovAyzTo89tB6rMw14M0Tl/DHf78oL0JB/MN930CqXoXfVtWhtSP0wM2BgYF5GVywK2QCWq0WGk30RxPTxHaW5gf0GxMRXU+Ffr/9Eq51x+Vyob+/X548LzCwiEBSUhLUajUUCgXHXBARUVCjo6Pw+Xxwu90YHByUZ88bDCyIiIgoajh4k4iIiKKGgQURERFFDQMLIiIiihoGFkRERBQ1DCyIiIgoajgrJAKcbkqhcHoZEZEUWywmoNVqodfroVQqGVRQgLi4OCiVSuj1emi1X/90NRHRfMXAIoykpCSuukkR02g0SEpKkicTEc0rDCzCUKu//slwokjwmiGi+Y6BRRgKhUKeNG9t35yFZ3ZvQqZZJ8+KqlS9Cr/6URGe37MF2zdnybOvC2Gfdpbmy7MC8JohovmOgUUYHFMxptBqwrZNS1B3sQPNjj559ozLNOvwzO5NEd3oo6Gr14PqWgeKrOYJgx1eM0Q033FWSBgZGRnyJFSWr0GORS9JG3B78fTLtbPiphttmWYdHrm/AK0dbuw7+ImYvn1zFu7aki0p62/IO4KX3q4P++t/UyXsU93FDrxw6Jw8e9rsLM3H6mUZEx6X0+mUJxERzRsMLMIIFVhoNUrxp7yFmxyAmAwudpbmw7rUEPbYUvUq/PSBVeh3eSXBx3S5XoGFcJwAwv6UOwMLIprPYjKwKCsrQ1FREQDAbrejqqpKXiQikQQWGL/5FlnNePPEJRz5oEksK6QL7HUO8UZYaDXhO7fn4Z0Pv8TWIguUigS89HY9bl1nQY5FD2enO+h7CBpbesWbeLgbXqHVhAfuWIYz9U7xvYUbc7JaCYRpcYn0Bh6NwELYRkba2ODHYC0e8jqQ869fBGlVCVZnjVd6kJGqQY5FD3udA452N+7akh30/eG3Tfm59sfAgojmswSDwfBLeeJcVlZWhuLiYigUCigUCmRlZUGn0+Hs2bPyohNKTk6WJ2HzqkVIVCagutaBQc8wAGB1vhEZaRp8+JkDV5wDgF+Xya9frMErR87D2elGycYlWGjUoKa+HRaTFtZcA24w6/D2+01YZEyGNTcdbo8Ptk++gjXXgBZnP1yDPvx81zpYTFpxW7XnO7C1yILNqxehpr4NXb0eZC/WIXvxArQ4+8V9AICSWzKRnpKEV480oKd/CIVWEx6+x4raC+147MBpHLY1YdUyI7YWWfBFYxd6+ofE125atQjLslJx3P6lZJtyapUCGwsWYsg7gpM1V+XZERn0DOO9j1pw2NaEkREgNzMFtRfaJe9bU9+Ow7Ym1J7vwNrlRpypbxOP4bCtCTX17WLZnaX5+ObqxXjxT+ew/1/PinW2apkRJ2uuivtsMiTjsqMXLc5+rMxNxw1mHV4+ch4335gqvqc/z9Aw1i43QqtWhjzWgYHQdUVEFOtibvCm0FIxUVq0FFpNWL0sA919Hly43C2mWUxaHLe3iK0Ap+pacabeCetSgzizQpEQj86eQXx6fuzmpVTE4dWjFwAAicp4pKeosbFgIVJ0Krx2rEHcVrOjD8ftLchIG8sHgLMXOwEAK5amQZCqVyFn8QK0drjF1966zoLuPg/e+HOjWE54z60bLGIaAKzMNUiOa67INOtgXWrAmXqn2OIg1JnFpEWh1SSWVSricPzDFgCAJkmB//j4ChztLgBARmrgGibNjj60drih1SiRqlfJs4mI5r2YCyxmQkaaGr+p2Ijn92zBg6XLcabeiZ/91i52QaxYmgavbxh1DR2S1zna3VAqErDQ+PUN6zO/MgNuH/pcX7cYYPzm7vUN42rb2M1OUNfQgQG3F+b0sa6DU3WtaGntR87iBeINL29JClJ0KvE9Ms06mAxqNF7pkXSX9LmGMOD2SW6kqXoVtBol+l3ekGMJZitrrgFKRYIYbAnau90AgPSUr9ea8A+6hrwjYplwnF0uJKsV0GkS5VlERPNezAUWdrtdnhQ07Vo4O9149JlqPP7cxxhweyWtEBh/0k1WK/Hzv12L5/dsEf/CzaIIJ1jAIfAPBj5r6ECKToW8JSnAeIDT3edBde1Yk/1CowZKRQKKrGbJfv2mYqM4tiEWmNPVSFTG48HS5ZLjfLB0ORKVMXfJExHNKjH3LVtVVQWbzQaPxwOPxwObzTblwZsTEZrXk9VKSTeCs8uFAbcXjz/3MXbtPSH5e3ifLWBA4LVwdn3dklHX0AGvbxgrlqaJ3SD+rRNX21zw+oZhr3ME7NeuvSemPPBytnG0uzHkHcEfDn0RcIy79p4IOeiSiIiuXcwFFhgPLioqKlBRUTFtQYWguvYqnJ1uSatFsC6PqZK3QgiCNfc3O/pQd7EDOYsX4Bs3pUOrUUryg3V5hNLV60G/yzsrxxJMdBzBujyiKSNVE7YViYhoPovJwGImCasy+rdaVNdeRXefB/eW5F7zEtjCtnYUZ4s3+EyzDluLLGhp7Q9o/Th7sRNajRKbVy+Co90lyRf2Nceij2jVylBBzfUmBD3ygZgCYbzJtk1LguZfC2Gcylwce0JENBNibrppNEU63bS9242CvHRYTFp80diF1g4X3vuoBauWGXHXlmzsKP76b8WNBpysuQqLSYuCvHQ0NPfgy9Z+cXZHda0DN5h1WJadivqmbnzW0IGa+jZsLFiIu7bkYEdxNorXLMKZ+jb879c+k+0d4Br0Ye3yDCwyJsP2yVdoaJbO6Gho7hanvpbeOra9HcXZKNm4BB09g5LpnZ6hYRRax9bykE+79BeN6aaFVhP+cedalN6ag2XZqUhIiMPqfCN2FGejyGpGTX2bWN8A8PlfOrE634jNqxeJx5CRphb382TNVSw0aiR1778tAJJ9Xp1vxML0ZNReaEe/y4sNBWYMuH0BxyNMwX3zPxpDTsHldFMims9icoGsaDEajfP+tx8iXcZ6PohkIbDR0VG0tY0FLkRE8xG7QsLw+XzypHnn+Ict8PqGJV0x89W3v5WDFJ0K750eW/ciGF4zRDTfMbAIw+2eeE2DWNfs6MNrxxqQolPhh3evkGfPG9s3Z6HIasbRk5fDttzwmiGi+Y6BRRiDg4NwuaQLU81Hp+pacfTkZZgM6msejDoXpepV2Fhghr3OEXaqqsvlwuDgoDyZiGhe4RiLCCQlJUGtVkOhUMz7MRckNTo6Cp/PB7fbzaCCiIiBBREREUUTu0KIiIgoahhYEBERUdQwsCAiIqKoYWBBREREUcPAgoiIiKKGs0IiwOmm8xOnkhIRTR5bLCag1Wqh1+uhVCoZVMwzcXFxUCqV0Ov10Gq18mwiIgqCgUUYSUlJ0Gg08mSahzQaDZKSkuTJREQkw8AiDLVaLU+ieYzXAxHRxBhYhKFQKORJFESh1YTfVRbjmd2bZu1viWzfnBV0/0KlB8PrgYhoYgwswuCYitkp06zDM7s3YWdpvjwrqEKrCds2LUHdxQ40O/okedW1VzHg9uEHd9884c/C83ogIpoYZ4WEkZGRIU9CZfka5Fj0krQBtxdPv1wbcNOay4IdJwA4O9148qUadPV65FkzJtOswyP3F6DuYgdeOHROni0hlG3tcGPfwU/k2UCEZQROp1OeREREfhIMBsMv5Yk0Jjk5WZ6EzasWwesbwWMHTuNf3rmI2vMd2FBgxoYCM75o7EJP/5D8JXOS/DgP25pw2NaE9z5qwaBnWF58Ri3QqrChwAxnpxs19e3ybIm7t94IU5oGz/3/vwh5bnr6h5CQEI8NBWaMjAANzd3yIqKBgQF5EhER+YnJFouysjIUFRUBAOx2O6qqquRFIhKqxUKrUUqe2neW5qPIasabJy7hyAdNYlkhXWCvc4hP2IVWE75zex7e+fBLbC2yQKlIwEtv1+PWdRbkWPQBLQPybTW29IpP16l6FX76wCoACGhNKLSa8MAdy3Cm3im+t/CEnqxWAiFaXIIdp5yw7UTlWI+afJ8FO0vzYV1qwB8OncO9JbnISBsbBBmsvLylxL/O5HUg518Wk2zZCFeH/thiQUQUXsy1WJSVlaG4uBgKhQIKhQJZWVnQ6XQ4e/asvOiEQrVYJCoTUF3rEJ/cV+cbkZGmwYefOXDFOfZEK9wgf/1iDV45ch7OTjdKNi7BQqMGNfXtsJi0sOYacINZh7ffb8IiYzKsuelwe3ywffIVrLkGtDj74Rr04ee71sFi0orbqj3fga1FFmxevQg19W3o6vUge7EO2YsXoMXZL+4DAJTckon0lCS8eqQBPf1DKLSa8PA9VtReaMdjB07jsK0Jq5YZsbXIImlxCXacclecAzh68jIO25qw4kZDyPKr843IWbwARVYT6i524LEDp1F7vgPFaxYhPzsNJ2uuAuN1ZjKoxeM8bGvClrUWjIyO4opzADX17Thsa0Lt+Q6sXW7Emfo28RgO25oCWi82rVqEZVmpOG7/UlInwQx6hkPWoT+2WBARhRdzgzeFloqJ0qKl0GrC6mUZ6O7z4MLlsSb0QqsJFpMWx+0tYivAqbpWnKl3wrrUIM5AUCTEo7NnEJ+eH7shKhVxePXoBQBAojIe6SlqbCxYiBSdCq8daxC31ezow3F7CzLSxvIB4OzFTgDAiqVpEKTqVchZvACtHW7xtbeus6C7z4M3/twolhPec+sGi5g2Hd48cUlsOWh29KG1ww2tRolUvQqpehW0GqVkXwHg6Vc+xam6Vr+tRG5lrkFyXiYi1GF6CqeVEhFNVcwFFjMhI02N31RsxPN7tuDB0uU4U+/Ez35rF5vPVyxNg9c3jLqGDsnrHO1uKBUJWGj8etGtz/zKDLh96HNJxwGszDXA6xvG1TaXJL2uoQMDbi/M6WM3wVN1rWhp7UfO4gXi7Ia8JSlI0anE98g062AyqNF4pUfS1N/nGsKA24eMVOliYP7HKfxFOhNDbsg7gvZutyRt38FPxHrr6vWg3+VFjkWPyvI1knJTIQQq/S5vyG4NuattLnh9w2KdEhHR5MVcYGG32+VJQdOuhbPTjUefqcbjz32MAbdX0goBABmpGiSrlfj5366V3JTv2pIt2U6kggUcAv9g4LOGDqToVMhbkgKMBzjdfR5U1451NSw0aqBUJKDIapbs128qNorjHvwJx7lr7wnxb6KxCtdi38FPYK9zIMeiv+ZAhoiIro+YCyyqqqpgs9ng8Xjg8Xhgs9mmPHhzIkKXRLJaKelGcHa5MOD24vHnPpbclHftPYGH99mm3LQfjLPr65aMuoYOeH3DWLE0TewG8W+dEJ7I7XWOgP3atffEhFMtZ8ILh85h194TePSZajg73SiymhlcEBHNITEXWGA8uKioqEBFRcW0BRWC6tqrcHa6Ja0Wwbo8pkreCiGw5hqgVCSI4wIwHujUXexAzuIF+MZN6dBqlJL8UF0es1FXrwdPvlQDZ6c7YH8jOQ6ha0UYwxEJoUXH0S7tsiEiosjFZGAxk7p6PaiudUhaLaprr6K7z4N7S3IjWio6HGFbO4qzxRtkplmHrUUWtLT2B7R+nL3YCa1Gic2rF8HR7pLkC/uaY9HPulaATLMOleVrJEGAMEbEv1UGfkGDxaRFodUkyfMXKigLRRj4Kh8LQkREkYu56abRFOl00/ZuNwry0mExafFFYxdaO1x476MWrFpmxF1bsrGj+Ou/FTcacLLmKiwmLQry0tHQ3IMvW/vF2R3VtQ7cYNZhWXYq6pu68VlDB2rq27CxYCHu2pKDHcXZKF6zCGfq2/C/X/tMtneAa9CHtcszsMiYDNsnXwUs9tTQ3C1OfS29dWx7O4qzUbJxCTp6BsVplsGOU25naT7+7r9axaAnWa3E1qIbsKM4GxlpanH65+p8IxamJ6P2QnvIaZw9/UPw+kbwD3/zDXG/Vucbcfj9Jvzx3y/Ki+Pzv3Ridb4Rm1cvEo/B/z0BwDM0jELr2Fok8qmocql6FbZvzkJ79yCq/r1Bni3idFMiovBicoGsaDEajfx9iDluZ2k+Vi/LwEtv1we07vjbvjkL2zYtCVtudHQUbW1t8mQiIvLDrpAwfD6fPInmmOMftsDrG5Z0JcmF61ryx+uBiGhiDCzCcLvZ1z7XNTv68NqxBqToVPjh3Svk2UjVq/CDu2/GgNuH378efnVWXg9ERBNjYBHG4OAgXC7pwEGae07VteLoycswGdQBg2k3FixEslqBA69/HnYhLZfLhcHBQXkyERHJcIxFBJKSkqBWq6FQKDjmYh4ZHR2Fz+eD2+1mUEFEFCEGFkRERBQ17AohIiKiqGFgQURERFHDwIKIiIiihoEFERERRQ0DCyIiIooazgqJAKebxhZOIyUimj5ssZiAVquFXq+HUqlkUBEj4uLioFQqodfrodVq5dlERHQNGFiEkZSUBI1GI0+mGKLRaJCUlCRPJiKiKWJgEYZarZYnUQzieSYiih4GFmEoFAp5Es0yqXoVfvWjIuwszZekF1pNePbRzSi0miTpwfA8ExFFDwOLMDimYuZVlq/Br35UFPInzuV+ePcKJKsVOP5hiyT9VF0rHO0u3FuSG/DDY3I8z0RE0ZNgMBh+KU+kMcnJyfIkVJavwXf/ehl2FGeLf99ab8EXjV3o6R+SF5+zdpbm48HSm9HRM4grzgF59rTZvGoREpUJqK51YNAzLM+W2Fmaj5uyUvHq0Qv4orFTno3P/9KJdTebsHZ5Bmrq28Jub2Bg5o6RiCiWscViCpydbjz6TDV27T2Bx5/7GADwyP0FEz4ZU/RkmnWwLjXgTL0Tp+pa5dkAgK5eD/5ku4QUnQrf/laOPJuIiKZBTK5jUVZWhqKiIgCA3W5HVVWVvEhEMjIy5EmoLF8DrUaJJ1+qQVevBxh/ci6ymvHmiUs48kGTWFZIF9jrHHjh0DlgfAzAd27PwzsffomtRRYoFQl46e163LrOghyLHs5Od9D3EDS29GLfwU+A8XEGP31gFQBIXoPx93ngjmU4U+8U3zvTrMMj9xcgWa0EAAy4vXj65Vo0O/rE1+0szcfqZRl46e36kDdu+G0/UTkWow55R4K+Rl7O/z3leXLyusD4/lmXGgL2O5jK8jUwGdRhyzqdTnkSERFNQcx1hZSVlaG4uBgKhQIKhQJZWVnQ6XQ4e/asvOiEgnWFBGuqX51vREaaBh9+5hC7DSrL1yDHosevX6zBK0fOw9npRsnGJVho1KCmvh0WkxbWXANuMOvw9vtNWGRMhjU3HW6PD7ZPvoI114AWZz9cgz78fNc6WExacVu15zuwtciCzasXoaa+DV29HmQv1iF78QK0OPslXRclt2QiPSUJrx5pQE//EAqtJjx8jxW1F9rx2IHTOGxrwqplRmwtknbnrM43YmF6MmovtIfsCsk063Dn/5ON3/zfM/iXdy7isK0JBXnp2Lx6kaQLxT+4Ed6zq8+Dko2ZYp0dPXkZh21NWHGjAV7fCB47cFrc5nsftUi6MVL1KmzfnIWuXo8kkAtlgVaFlbkGdPV60NDcLc8G2BVCRBQ1wR8R5zChpWKitGgptJqwelkGuvs8uHB57KZVaDXBYtLiuL1FfEI+VdeKM/VOWJcaxC4TRUI8OnsG8en5dgCAUhGHV49eAAAkKuORnqLGxoKFSNGp8NqxBnFbzY4+HLe3ICNtLB8Azl4cG2OwYmkaBKl6FXIWL0Brh1t87a3rLOju8+CNPzeK5YT33LrBIqZFotnRh30HP5G0JLx3emwQpf9+pKeMTecU9hHj9fH0K5+K/5+MvCUpSNGp8FlDhzwrqLqGDgy4vTCnc1opEdF0i7nAYiZkpKnxm4qNeH7PFjxYuhxn6p342W/t4g12xdI0eH3DqJPd+BztbigVCVho/HrRLf+b44Dbhz6XdADoylwDvL5hXG1zSdLlN8tTda1oae1HzuIF4owK+Q0406yDyaBG45UeSTDQ5xrCgNuHjNRrXwzsapsLXp90kGR7txsA8MAdyyKa/jkRIVARtjuRaB4fERGFF3OBhd1ulycFTbsWwuDNx5/7GANur6QVAgAyUjVIVivx879di+f3bBH/7tqSLdlOpIIFHAL/m+VnDR1I0amQtyQFGA9wuvs8qK69CgBYaNRAqUhAkdUs2a/fVGxERtrUnuZ3luZLtvXzv10rjt0QnKprxa9fPAOvbxgPli7H83u24JndmzjYlYgoBsVcYFFVVQWbzQaPxwOPxwObzTblwZsTEbokktVKSTeCs8uFAbcXjz/3MXbtPSH5e3ifLWBg47Vwdn3dklHX0AGvbxgrlqaJ3SD+rRNCa4K9zhGwX7v2nhAHg0bKf9CqsA0h2JJrdvSh4omT2LX3BN48cQnJaiVn0hARxaCYCywwHlxUVFSgoqJi2oIKQXXtVTg73ZJWi2BdHlMlb4UQWHMNUCoSJOMWmh19qLvYgZzFC/CNm9Kh1Sgl+dHsEhACF2enW2wRidSRD5rw5olLQevI2eVCsloBnSZRku5P6AIRukQmotMkIlmtkARhREQ0PWIysJhJXb0eVNc6JK0W1bVX0d3niWjVx4kI29pRnC2Oncg067C1yIKW1v6A1o+zFzuh1SixefUiONpdknxhX3Ms+oAlsCerq9eDfpdXEvQUWk34799fHdAVsrM0H9s3Z0nSQo0dcbS7A1qA5C5c7kZ3nwcrcw3yrKCsuQYkq5VwtEc2JoOIiKYuJtexiJZI17EQ1pFIViskayUIU079CetPCFMwj568jOraq5J1KDYWLMRdW7LFdTGE7fuPg/BfE8Off1n5uhqCYOtGyNefkK+bEaycfL8G3F7887814Du356LuYodk/+R1EWxtCoH8vYOVnew6FvJzJsd1LIiIooOBRRhGo5G/IzFLCYt8tXa4w44N8Q/gggVZADA6Ooq2tjZ5MhERTQG7QsLw+XzyJJolxPEkFn1AN4sgVa/CjuJsycyYYHieiYiih4FFGG43++RnsxcOnUNjSy+2bVoSdH0M4ZdPD7z+ecguEPA8ExFFFQOLMAYHB+FycSbBbPb718+iu88jWekT410g5nSNZMXSYFwuFwYHB+XJREQ0RRxjEYGkpCSo1WooFAqOuYgBo6Oj8Pl8cLvdDCqIiKKMgQURERFFDbtCiIiIKGoYWBAREVHUMLAgIiKiqGFgQURERFHDwIKIiIiihrNCIsDpprGF002JiKYPWywmoNVqodfroVQqGVTEiLi4OCiVSuj1emi1Wnk2ERFdAwYWYSQlJUGj0ciTKYZoNBokJSXJk4mIaIoYWIShVn/9M+UUu3ieiYiiJ8FgMPxSnkhjdDrdNXV/pOpV+Pmudbi3JBcjI0BDc7e8yJRVlq/B7bcsQU19GwY9w/JsAMDO0nzcfdvSsGWiodBqwj/uXIu/2nADvmjsQk//kLzIjCu0mvDo91ajq9eDK84BebZEfHw8fxOGiChK2GIRxrUEFdfb9s1ZKLKaUV3rCPvLnjOl0GrC7yqLQ/7EebSdqmuFo92Fe0tykWnWybMl5vJ5JiKabTgrJIyMjAx5ErZvzsJdW7LlyRjyjuClt+txqq5VnjUtKsvXQKtR4smXagICh0KrCQ/csQxn6p144dA5MX1naT6KrGZJWX8Dbi+efrk27K+BTpWwT0dPXsaRD5rk2dMiVa/CTx9YBQBB68mf0+mUJxER0RQwsAgjVGCxbdOSGQ0iggkXWITLE2SadXjk/gLUXeyQBB/T5XoEFggTZMkxsCAiio6YDCzKyspQVFQEALDb7aiqqpIXichUAwvhSTkjbWxQYKjWjJ2l+chZvACvHWvAg6X5SFYrAQD2OkfATTBYa4Oz0x0QPER6A49GYCG8V6JyrEct2P5Ulq9BjkXv9yqpN09ckuyn/Dj966LQasJ3bs/DOx9+ia1FFigVCXjp7Xrcus6CHIs+6PtjfB9MBnXY1hgGFkRE0RFzgzfLyspQXFwMhUIBhUKBrKws6HQ6nD17Vl50QsnJyfIk5C1JQW5mCmovtIccFDjoGcZ7H7XgsK0JIyMIWX51vhE3ZaVi9TIjXj16Afv/9SxGRoDbCm+QDPYUbs6/frEGrxw5j8O2Jqy40YBEZQKqax2SgZklt2QiPSUJb524FHYQ5QKtChsKzHB2ulFT3y7PjsgV5wCOnrwcdn9O1lzFYVsTnJ1urFhqwOH3m/DUy5/isK0Jh21NkgGt8uN0drpRsnEJFho1qKlvh8WkhTXXgBvMOrz9fhMWGZNhzU2H2+OD7ZOvYM01oMXZH1DPC7QqrMw1oKvXE3IA7cBA8HNJRESTE3ODN4WWionSZpOjJy+LrRl1DR0YcHthTh9r7Si0mmAxaXHc3hLyaVuQqlchZ/ECtHa4Jyw72wQ7zlN1rThT74R1qUEcgKlIiEdnzyA+PT8WDCkVcXj16AUAQKIyHukpgVNH5XVKRETTJ+YCi5mQqIzHg6XL8fyeLeLfr35UhFS9Sl50QgNuL+oaOuTJohVL0+D1DYctI9BpEpGsVsDZNfemToY6Tke7G0pFAhYav16o7DO/MgNuH/pcoVtmAKDPNYQBtw8ZqVzsjIhousVcYGG32+VJQdOuxZB3BH849AV27T0h/v3st/aAvn2KXEaqBslqJX7+t2slAVuwGThERDR7xVxgUVVVBZvNBo/HA4/HA5vNNuXBmzRznF0uDLi9ePy5jyUB2669J/DwPlvAwFciIpqdYi6wwHhwUVFRgYqKijkfVATrChDGI8jN5ib/q20ueH3DIcc5BDvOaJnLXURERHNNTAYWsaSuoQNe3zBuXWcBxqeJ3luSC9egT14UXb0eNF7pgcmgnnC1yZkmBD3+AzH9VddeRXefJ6KVMifLmmtAsloJR7tbnkVERFHGwGIaCMtXC2ME/Ad7TnaQZ7OjD68da4DFpMXze7bgv39/NV471oD6pk55UQDA2YudUCoSYM01yLOibmdpvjgWIseiR0aaGr+p2Ijn92zBztJ8SdmuXg8OvP45AEjGUQhLfHf1evCz39rR2uEOGGdRWb5Gsq3JWplrgLPTjeraq/IsIiKKsphcICtajEbjnPwdiUgWhJovIlkwbHR0FG1tbfJkIiKaArZYhOHzBXY3zAXvnW6BUpGA+7blybPmlVS9CjuKs9Hd5wnbWjFXzzMR0WzEwCIMt3tu9smfqmvF0ZOXkWPRB3RJzCc/vHsFktUKHHj987BTgefqeSYimo0YWIQxODgIl2tuziQ48kET7HUO5CxeMKkxHbGi0GqCOV2D1441hO0OcrlcGBwclCcTEdEUcYxFBJKSkqBWq6FQKObkmAuSGh0dhc/ng9vtZlBBRBRlDCyIiIgoatgVQkRERFHDwIKIiIiihoEFERERRQ0DCyIiIooaBhZEREQUNZwVEgFON5XidE0iIgqFLRYT0Gq10Ov1UCqVDCrGxcXFQalUQq/XQ6sN/Pl2IiKavxhYhJGUlASNRiNPJj8ajQZJSUnyZCIimqcYWIShVqvlSRQE64mIiAQJBoPhl/JEGqPT6abU/ZGqV+Hnu9bh3pJc7CjORsnGJejoGcQV54C86HWXadbhsYfWIyEhHg3N3WJ6odWER7+3Gl29ngn3Oz4+fs7+pgoREUUXWyzCmEpQAQBdvR787Ld27Np7Am+euCTPnjVS9Sr84O6bMeD2Bfys+Km6VjjaXbi3JBeZZp0kT26q9URERLGHgcUUVZavwfN7toh/v/pR0Zz7FdGJflb896+fxYDbhx/cffOcOzYiIro+GFhMUqZZh2d2b4LJoMbjz32MXXtPYNfeE/iT7RK2bcqSF5+1Cq0mWExaHLe3hPxZ8a5eD/5ku4QUnQrf/laOPJuIiChATK5jUVZWhqKiIgCA3W5HVVWVvEhEMjIy5EmoLF8Dk0GNp1+uDXlD9rd9cxa2bVqCl96ux6m6Vnk2UvUq/PSBVchIGxsAOeQdCVq2snwNcix68f+NLb3Yd/AT8f+ZZh0eub8AdRc74Gh3464t2WLemycu4cgHTeL/Mb49rUaJJ1+qCdpa4S+SY3Y6nfIkIiKah2KuxaKsrAzFxcVQqVRQqVQoLi5GWVmZvNiUZJp1MBnUaO1wh7zBTkamWYdf/GAd+l1eseXjTL0TD9yxDIVWk1huZ2k+PmvoEMv84dAXsJi0qCxfI9keABRZzdhaZBFbU+x1DmzbtESyPeE4Gq/0TBhUAMBnDR1IVithzTXIs4iIiCRiLrAQWiomSpsKa64ByWolPmvokGdNydYNFgDAq0cviGlv/LkR3X0e3LpuLA8AXjh0TtLicKquFS2t/TAZ1AEDK52dbjx24LQY+Jy92AkASE/5ekqoNdcApSJBzJtIXUMHBtxemNM5rZSIiMKLucBirkjVq5CzeEFA60dXrwf9Li+0GmXYAZPOruDTO/tdXkkrxKm6Vjy8zyYJTMzpanh9w7jaFnwbcn2uIQy4fchI5WJhREQUXswFFna7XZ4UNO1602kSkaxWIMeil8wueX7PFslYCvgNGPUvU2Q1S8oQERHNBjEXWFRVVcFms8Hj8cDj8cBms0158KZce7cbQ94RrIzCWAOhFaCxpVccO+H/97Pf2tHV6xEHZQ64fXj0mWox317nkG+SiIjouou5wALjwUVFRQUqKiqiFlQAwIXL3eju8wQd2zBZkXZ5COM6qmsdEQ20jISj3Q2lIgELjZF1bQitK6G6X4iIiAQxGVhMF2FdB6UiAY/cXyAJLgqtJty37SZJ+Ym8d7oFKToVfnj3CnmWKFgrSWX5mmvqCqlr6IDXN4wVS9PkWUEJwY2j3S3PIiIikojJdSyiJdg6Fgiy9gTGZ2MIa0IUWk144I5lSFQGxm3+5eC3/kSyWikp57/2xPbNWZJ1KYRuEOtSg7i2hLCd1g63ZH2LUCa7jsVEZbmOBRERgYFFeEajMWZ/B0MIfs7UO/HCoXPybJFQ7ujJywGLbAlGR0fR1tYmTyYionko8JGaRD6fT54UM4S1MFYvy5AsnuUvVa/CjuJsdPd5An6kzF8s1xMREU0OA4sw3O7YHlPw+9fPorvPE/IXTCf6kTJBrNcTERFFjoFFGIODg3C5YncmRFevBwde/xwYH6Dpr9Bqgjldg9eONYRdvtzlcmFwcFCeTERE8xTHWEQgKSkJarUaCoUiZsdcTMbo6Ch8Ph/cbjeDCiIikmBgQURERFHDrhAiIiKKGgYWREREFDUMLIiIiChqGFgQERFR1DCwICIioqjhrJAIxMJ0U04RJSKimcAWiwlotVro9Xoolco5G1QAQFxcHJRKJfR6PbRarTybiIgoKhhYhJGUlASNRiNPnvM0Gg2SkpLkyURERNeMgUUYavXXP4sea2L52IiI6PphYBGGQqGQJ8WMWD42IiK6fhhYhDEXx1RUlq/Br35UhFS9Sp4lMRePjYiIZj8GFlNUWb4Gz+/ZIv5FcjMnIiKKdQwsJinTrMMzuzfBZFDj8ec+xq69J7Br7wn8yXYJ2zZlyYsTERHNKzG5jkVZWRmKiooAAHa7HVVVVfIiEcnIyJAnobJ8DUwGNZ5+uRbNjj55tkRl+RrkWPTi/+11Drxw6Jz4/52l+bAuNUi2lWnW4ZH7C1B3sQMvHDon/v+4vQXmdDWKrGYAwIDbK76u0GrCA3csQ6IyeJzo7HTjyZdq0NXrkaY7nZL/ExERXasEg8HwS3niXFZWVobi4mIoFAooFApkZWVBp9Ph7Nmz8qITSk5Olvw/06zD1iILWjvcOPJBkyTPX6ZZh8ceWo+4uDg8duA0/uWdi3B2ulGycQkK8tJxsuYqAGB1vhGmNA0+/KwVPf1DAIAFWhU2FJjh7HSjpr5d/P/KXAOGvCN49JlqnKy5inU3m7B2eQZq6ttw8cseHD15GYdtTVhxowFe34j4vodtTXjvoxYMeoZlewkMDAzIk4iIiK5J8EfcOUxoqZgobSqsuQYkq5X4rKFDniWxdYMFAHDg9c/FVoJTda04U++ExaRFodUke8XEnJ1u/P71seCoq9eDxis9SFYroNMkyosSERFdNzEXWFxvqXoVchYvwIDbhz7XWCuE4OzFTgBAesrk15BovNIT0JVBREQ028RcYGG32+VJQdOmW7/LGzIQMKdPPrAgIiKaC2IusKiqqoLNZoPH44HH44HNZpvy4E259m43hrwjWJlrkGdNiqPdLU8iIiKKCTEXWGA8uKioqEBFRUXUggoAuHC5G919HpgMamSadfJswG/8Q7AyK5amwesbRl2YMRrCOI6pcna5OPaCiIium5gMLKZLV68Hf7JdglKRgEfuL5AEDoVWE+7bdhMA4PiHLQCA+7blSfJXL8tA3cUOcWqpo92NZLUS1vEWkO2bs3DXlmzxNVMhbFMYQEpERDSTYnIdi2gJto4Fxgdo/vSBVchI+3qshHytCGH9Cf/WhzdPXAqYprqzNF+yNsUfDp3DvSW5aLzSI1nHQljXwv918jUw/POEbSLIvonpXMeCiIiijIFFGEajMWZ/U2N0dBRtbW3yZCIiomvCrpAwfD6fPClmxPKxERHR9cPAIgy3O3Znb8TysRER0fXDwCKMwcFBuFwuefKc53K5MDg4KE8mIiK6ZgwsJtDf34/e3l54vV6Mjs7d4Sijo6Pwer3o7e1Ff3+/PJuIiCgqOHiTiIiIooYtFkRERBQ1DCyIiIgoahhYEBERUdQwsCAiIqKoYWBBREREUcNZIRFISkqCWq2GQqGYs0t8j46Owufzwe12T3oNi9l8/NdyXEREFH0MLCag1Wqh0WjkyXOay+WKeC2LuXT8kzkuIiKaHuwKCSMpKWnO3FQnQ6PRICkpSZ4cYK4df6THRURE04eBRRhq9dc/ix5rIjm2SMrMNnNxn4mIYgkDizAUCoU8aVJS9Sr86kdFeH7PFmzfnCXPvq4iObZIysw2c3GfiYhiCQOLMGbbQMVIVJavwa9+VIRUvUqeJRHJsUVSZqYUWk34XWXxhAHabNpnIqL5iIM3w8jIyJAnYfvmLNy1JVuejCHvCF56ux6n6lrlWTOqsnwNtBolnnypBl29Hnm2hNPplCdJBDv+TLMOj9xfgNYON/Yd/ESePW0KrSY8cMcyHD15GUc+aJJnS0x0XERENH3YYjEFQ94R/OHQF9i194T49/A+23UPKoiIiK63mGyxKCsrQ1FREQDAbrejqqpKXiQiwZ7Yt2/OwrZNS8K2TqTqVfjpA6uQkTY2kDBUa4b/tm5dZ0GORQ8AGHB78fTLtWh29Illd5bmo8hqFv/f2NIrthgIT/OJyuBxorPTHbQFY6In+2DHP5kWi8ryNeIxQbbP/uTl7HUOvHDoXNA8uTdPXApowZjouIiIaPrEXGBRVlaG4uJiSZrNZptScBHsxhpJYOEvXHn/bhXhpisEJQDEYGBnaT5WL8uQbGNnaT4c7e6Am+ps6QqR758Q/LS09kteV1m+BiaDWhJIPfI338B/1l6V1Be7QoiI5obgj7hzmNBSMVHabGKvc4g3265eDxqv9CBZrYBOkwgAyEjVoLvPgwuXu8XXvHDo3IQ32OtJvn+n6lrR0toPk0GNTLMOGG/Z0WqUaO1wS1pnnn7l04AgjIiI5oaYCyxmQqIyHg+WLsfze7aIf5HMxAjF0e6W/P+FQ+dQ8cRJ8Wbr7HIhI02Nnz6wasrvMRs4u1yS/3f1etDv8iLHokdl+RpJHhERzU0xF1jY7XZ5UtC0axFs8ObPfmufsOthql44dA5vnriEjDQ1flOxEc/v2TLrb8SZZh2e2b1JEnz5jxER7Dv4Cex1DuRY9GK5naX58mJERDRHxFxgUVVVBZvNBo/HA4/HM+XxFbPNkQ+axCCmsaV3Vj/lC+MwBtw+PPpMtbjf9jqHvCgwHjjt2nsCjz5TDWenG0VWM4MLIqI5KuYCC4wHFxUVFaioqIiJoEJu38FP0NjSC61GGdA14uxyScZnXA/WXAOS1UpU1zom1YrT1evBky/VwNnpRkaq9DdKrra54PUNw5zOJbuJiGazmAwsYkmqXoXK8jXigEeMtwiYDGr0u7wBN25HuxvJaiW2brBI0oNZv349nnrqKaxfv16edU3au90Y8o5gZa5BTKssXxPQFZJp1qGyfI0kOMpbkoIUnSpgPEafawgDbh+sSw2SuiAiotkl5qabRlOw6Zbhpo8Kwq0r4b+mhDDdNNhaDP6EroVktVJM81/rQU6+5kWodSzuuOMOZGVl4emnn0Z399czTgTBjj/Yvgj816mQr1AqdINYlxokU0uD1VWo+gj23sHKcropEdH1w8AiDKPRGLO/PTE6Oorvfe976OjowMGDB+XZwBw9/tHRUbS1tcmTiYhohgQ+UpPI5/PJk2JGRkYGdDod3n33XXmWaC4e/1zcZyKiWMIWizCSkpKg14deTnou6+3txeDgoDxZYi4efyTHRURE04ctFmEMDg7C5ZIOIowFLpcropvvXDv+SI+LiIimD1ssIpCUlAS1Wg2FQjHnxhwIRkdH4fP54Ha7J33znc3Hfy3HRURE0cfAgoiIiKKGXSFEREQUNQwsiIiIKGoYWBAREVHUMLAgIiKiqGFgQURERFHDWSERmM3TLa8HTvEkIqJQ2GIxAa1WC71eD6VSyaBiXFxcHJRKJfR6PbRarTybiIjmMQYWYSQlJUGj0ciTyY9Go0FSUpI8mYiI5ikGFmGo1Wp5EgXBeiIiIgHHWIQx0c+Gb9+chbu2ZIv/H3B78fTLtWh29EnKzTWZZh0eub8AdRc78MKhc/LsAPypciIiErDFIoxIggp7nQO79p7Arr0nUPHEyTkfVExFuHqK1O7du7F79255csTKy8uxd+9epKSkRJRORETTg4HFFK3MNWDA7cXxD1vkWURERPMWA4trMOD2oc81JE+mGVJeXo7y8nJ5MhERXUcxOcairKwMRUVFAAC73Y6qqip5kYhkZGTIk0SV5Wug1Sjx5Es16Or1yLOB8TI5Fr34f3udQzJmYfvmLGzbtAQvvV2PW9dZxLLBxmrIx3M0tvRi38FPxP8DQKpehZ8+sAoZaV8PppS/p2BnaT6KrGbx//7l/MdYABDLBdsvgdPplCdJZGZm4sc//rFkls1bb70FALjzzjv9SgIulwvPPvssmpubgfEAYt26dZL8jz/+GGvXrsW7776LkpISJCYmivlDQ0P48MMPsWHDhoD0V199FR999BEw3v2Sk5Mj5r/11ls4duyY+H8iIpq8mAssysrKUFxcLEmz2WxTCi7kgYX8Ziwn3JyFG/OA2ycGHoVWEx64YxlaWvvFgMA/WBACBSE4ACC+dmdpPlYvy8BLb9fjVF2ruP3WDrckuHjkb76B/6y9ilN1rZLt+wcNwvZTdCpxewBw37abcPHLbsn2k9VKODvdePKlGgDATx9YhX6XNyCgwQSBhRBUfP755zh48CAAoKSkBADEG7kwvuKJJ54QX5eSkoJHHnkEycnJkkBj9+7dsFgskiChvLwcWVlZePrpp9Hd3S1uI1i6sF0AYnpJSQnuvPNOBhdERNco5rpChJaKidKm4oVD58SBmo0tvXB2uvHoM9VimnDz3rrBAgA48PrnYmvGqbpWnKl3wmLSotBqkmzXXucQb9ZdvR40XulBsloBnSYRmWYdrEsNOFPvFIOAZkcfjttbArb19CufimUAoLr2KpydbuQsXoBUvQoAsLFgYUBQAQCvHj0v+T8AMajo6vWI+2UyqJFp1knKTcRsHgvGzp49K6YdO3Zswht4UVFRQFCxfv16WCwWJCYmBgSQkSoqKsKCBQvw9ttvi8HGsWPH0NjYiI0bN3KgJxHRNYi5wOJ6S9WrkLN4QdDxF2cvdgIA0lOk6z442t2S/79w6Jw4w8Saa4BSkSC+VtDePfYa+bb8dfV60O/yStJW5hrQ3efBhctfP9WH0nilJ2Q3j1xmZiaeeuop7N+/X/wTZmM4HA4AwD333IPMzEz5S0OyWq1wOBySoOKee+7Bq6++itOnT8NsNk9qewKr1YqWlhaxtUPQ0dGB5ORk6PVfd18REdHkxFxgYbfb5UlB06Zbv8sb8qZsTg8dDMiZ09VIVMbjwdLleH7PFvHvwdLlSFRKT1+h1YTfVRZLyvmP8UjVq6DVKMPu21Q1NzfjJz/5CR566CHxb8+ePeju7kZzczMef/xxDAwMoLKyEvv37xe7QkJJSUmBTvd1y0hmZibuueceHD9+PCAgmAxhuzk5OZIgaP/+/ZJxHERENDUxF1hUVVXBZrPB4/HA4/FMeXzFdJK3UITjaHdjyDuCPxz6Quxy8f878kETMB5UCGM4/PMbW3rFbQktGFqNUuwamSnd3d3Ys2cPHnroIZw+fRp33nln2Bkd3d3d6OsbGyQqjNE4fvz4hN0nExG229jYKAmChL+f/OQnYgsJERFNXswFFhgPLioqKlBRUTHjQUW4sQgrlqbB6xtGXcPYbItIRNLlgfFtA8B7p8Ovq+HsciFFp0Lekus3juDgwYNobGyEwWCQZ0l0dHTAYrGIAz+FoCIlJQVZWVmSbpLJ6OjomHI3ChERhReTgcX1Jiyadd+2PDGt0GrC6mUZqLvYEXS6Ziin6lrR0tqPbZuWBAz69OdodyNRGS8GGKl6FX71oyJJVwjG983rG8a9JbmSwOe+bTeF3f61WL9+Pe69917x/5mZmTCbzejo+DrACnazf/fdd+Hz+TAwMIA33nhDTN+1axeSk5Pxxz/+UUz76quvsGDBAuTlfV3nodLfffddAMCDDz4oGahZUlIyYRcNERGFF3PTTaNJPt3U30TrWPhP2RS8eeKS2HUBv+mg8vRggk119Z+1EazMmycuYWWuIWA/J1rvItRvhewszYd1qSHoWhbhppuuX78e9913n2RNidOnT4tTTyFb50JYx+Kee+5BR0cHDAaDZL2Jtra2gGmlwhRSo9EoWa8ikvRw2yUioslhYBHGRD9CRmOm40fI1q9fj61bt+J3v/sdb/RERHMIA4swUlNToVR+3eJAwXm9XnR1dcmTiYhoHuIYizDc7shnb8xnrCciIhIwsAhjcHAQLpdLnkx+XC4XBgcH5clERDRPMbCYQH9/P3p7e+H1ejE6yl4jjI+p8Hq96O3tRX9/vzybiIjmMY6xICIioqhhiwURERFFDQMLIiIiihoGFkRERBQ1DCyIiIgoahhYEBERUdQwsCAiIqKoYWBBREREUcPAgoiIiKKGgQURERFFDQMLIiIiihoGFkRERBQ1DCyIiIgoahhYEBERUdT8f2si8xFZySF5AAAAAElFTkSuQmCC;" vertex="1" parent="1">
                    <mxGeometry x="-143.62" y="29" width="355.24" height="310" as="geometry"/>
                </mxCell>
                <mxCell id="11" value="&lt;p style=&quot;margin:0px;margin-top:4px;text-align:center;&quot;&gt;&lt;b&gt;Node&amp;lt;T&amp;gt;&lt;/b&gt;&lt;/p&gt;&lt;hr size=&quot;1&quot; style=&quot;border-style:solid;&quot;&gt;&lt;p style=&quot;margin:0px;margin-left:4px;&quot;&gt;T Data&lt;/p&gt;&lt;hr size=&quot;1&quot; style=&quot;border-style:solid;&quot;&gt;&lt;p style=&quot;margin:0px;margin-left:4px;&quot;&gt;Node&amp;lt;T&amp;gt; Next&lt;/p&gt;" style="verticalAlign=top;align=left;overflow=fill;html=1;whiteSpace=wrap;fillColor=#dae8fc;strokeColor=#6c8ebf;" vertex="1" parent="1">
                    <mxGeometry x="-16" y="377" width="100" height="80" as="geometry"/>
                </mxCell>
                <mxCell id="12" value="&lt;p style=&quot;margin:0px;margin-top:4px;text-align:center;&quot;&gt;&lt;b&gt;Node&amp;lt;T&amp;gt;&lt;/b&gt;&lt;/p&gt;&lt;hr size=&quot;1&quot; style=&quot;border-style:solid;&quot;&gt;&lt;p style=&quot;margin:0px;margin-left:4px;&quot;&gt;T Data&lt;/p&gt;&lt;hr size=&quot;1&quot; style=&quot;border-style:solid;&quot;&gt;&lt;p style=&quot;margin:0px;margin-left:4px;&quot;&gt;Node&amp;lt;T&amp;gt; Next&lt;/p&gt;" style="verticalAlign=top;align=left;overflow=fill;html=1;whiteSpace=wrap;fillColor=#dae8fc;strokeColor=#6c8ebf;" vertex="1" parent="1">
                    <mxGeometry x="114.38" y="377" width="100" height="80" as="geometry"/>
                </mxCell>
                <mxCell id="13" value="" style="endArrow=classic;html=1;entryX=0;entryY=0.75;entryDx=0;entryDy=0;exitX=1;exitY=0.75;exitDx=0;exitDy=0;" edge="1" parent="1" source="11" target="12">
                    <mxGeometry width="50" height="50" relative="1" as="geometry">
                        <mxPoint x="258.38" y="307" as="sourcePoint"/>
                        <mxPoint x="308.38" y="257" as="targetPoint"/>
                    </mxGeometry>
                </mxCell>
                <mxCell id="14" value="&lt;p style=&quot;margin:0px;margin-top:4px;text-align:center;&quot;&gt;&lt;b&gt;Node&amp;lt;T&amp;gt;&lt;/b&gt;&lt;/p&gt;&lt;hr size=&quot;1&quot; style=&quot;border-style:solid;&quot;&gt;&lt;p style=&quot;margin:0px;margin-left:4px;&quot;&gt;T Data&lt;/p&gt;&lt;hr size=&quot;1&quot; style=&quot;border-style:solid;&quot;&gt;&lt;p style=&quot;margin:0px;margin-left:4px;&quot;&gt;Node&amp;lt;T&amp;gt; Next&lt;/p&gt;" style="verticalAlign=top;align=left;overflow=fill;html=1;whiteSpace=wrap;fillColor=#dae8fc;strokeColor=#6c8ebf;" vertex="1" parent="1">
                    <mxGeometry x="240.38" y="377" width="100" height="80" as="geometry"/>
                </mxCell>
                <mxCell id="15" value="&lt;p style=&quot;margin:0px;margin-top:4px;text-align:center;&quot;&gt;&lt;b&gt;Node&amp;lt;T&amp;gt;&lt;/b&gt;&lt;/p&gt;&lt;hr size=&quot;1&quot; style=&quot;border-style:solid;&quot;&gt;&lt;p style=&quot;margin:0px;margin-left:4px;&quot;&gt;T Data&lt;/p&gt;&lt;hr size=&quot;1&quot; style=&quot;border-style:solid;&quot;&gt;&lt;p style=&quot;margin:0px;margin-left:4px;&quot;&gt;Node&amp;lt;T&amp;gt; Next&lt;/p&gt;" style="verticalAlign=top;align=left;overflow=fill;html=1;whiteSpace=wrap;fillColor=#dae8fc;strokeColor=#6c8ebf;" vertex="1" parent="1">
                    <mxGeometry x="370.76" y="377" width="100" height="80" as="geometry"/>
                </mxCell>
                <mxCell id="16" value="" style="endArrow=classic;html=1;entryX=0;entryY=0.75;entryDx=0;entryDy=0;exitX=1;exitY=0.75;exitDx=0;exitDy=0;" edge="1" parent="1" source="14" target="15">
                    <mxGeometry width="50" height="50" relative="1" as="geometry">
                        <mxPoint x="514.76" y="307" as="sourcePoint"/>
                        <mxPoint x="564.76" y="257" as="targetPoint"/>
                    </mxGeometry>
                </mxCell>
                <mxCell id="17" value="" style="endArrow=classic;html=1;entryX=0;entryY=0.75;entryDx=0;entryDy=0;exitX=1;exitY=0.75;exitDx=0;exitDy=0;" edge="1" parent="1" source="12" target="14">
                    <mxGeometry width="50" height="50" relative="1" as="geometry">
                        <mxPoint x="94.38" y="447" as="sourcePoint"/>
                        <mxPoint x="124.38" y="447" as="targetPoint"/>
                    </mxGeometry>
                </mxCell>
                <mxCell id="18" value="&lt;p style=&quot;margin:0px;margin-top:4px;text-align:center;&quot;&gt;&lt;b&gt;LinkedList&amp;lt;T&amp;gt;&lt;/b&gt;&lt;/p&gt;&lt;hr size=&quot;1&quot; style=&quot;border-style:solid;&quot;&gt;&lt;p style=&quot;margin:0px;margin-left:4px;&quot;&gt;Node&amp;lt;T&amp;gt; Head&lt;/p&gt;&lt;hr size=&quot;1&quot; style=&quot;border-style:solid;&quot;&gt;&lt;p style=&quot;margin:0px;margin-left:4px;&quot;&gt;AddFirst(T Data)&lt;/p&gt;" style="verticalAlign=top;align=left;overflow=fill;html=1;whiteSpace=wrap;fillColor=#fff2cc;strokeColor=#d6b656;" vertex="1" parent="1">
                    <mxGeometry x="-142" y="377" width="100" height="80" as="geometry"/>
                </mxCell>
                <mxCell id="20" value="" style="endArrow=classic;html=1;exitX=1;exitY=0.5;exitDx=0;exitDy=0;entryX=0;entryY=0.5;entryDx=0;entryDy=0;" edge="1" parent="1" source="18" target="11">
                    <mxGeometry width="50" height="50" relative="1" as="geometry">
                        <mxPoint x="44" y="289" as="sourcePoint"/>
                        <mxPoint x="94" y="239" as="targetPoint"/>
                    </mxGeometry>
                </mxCell>
                <mxCell id="21" value="&lt;b&gt;&lt;font style=&quot;font-size: 20px;&quot;&gt;NULL&lt;/font&gt;&lt;/b&gt;" style="rounded=0;whiteSpace=wrap;html=1;fillColor=#ffe6cc;strokeColor=#d79b00;" vertex="1" parent="1">
                    <mxGeometry x="495" y="377" width="120" height="80" as="geometry"/>
                </mxCell>
                <mxCell id="22" value="" style="endArrow=classic;html=1;entryX=0;entryY=0.75;entryDx=0;entryDy=0;" edge="1" parent="1" target="21">
                    <mxGeometry width="50" height="50" relative="1" as="geometry">
                        <mxPoint x="469" y="437" as="sourcePoint"/>
                        <mxPoint x="381" y="447" as="targetPoint"/>
                    </mxGeometry>
                </mxCell>
                <mxCell id="34" value="DoubleLinkedList&amp;lt;T&amp;gt;&lt;div&gt;&lt;br&gt;&lt;/div&gt;" style="swimlane;fontStyle=1;align=center;verticalAlign=top;childLayout=stackLayout;horizontal=1;startSize=26;horizontalStack=0;resizeParent=1;resizeParentMax=0;resizeLast=0;collapsible=1;marginBottom=0;whiteSpace=wrap;html=1;fillColor=#fff2cc;strokeColor=#d6b656;" vertex="1" parent="1">
                    <mxGeometry x="-142" y="506" width="160" height="164" as="geometry"/>
                </mxCell>
                <mxCell id="36" value="" style="line;strokeWidth=1;fillColor=#fff2cc;align=left;verticalAlign=middle;spacingTop=-1;spacingLeft=3;spacingRight=3;rotatable=0;labelPosition=right;points=[];portConstraint=eastwest;strokeColor=#d6b656;" vertex="1" parent="34">
                    <mxGeometry y="26" width="160" height="8" as="geometry"/>
                </mxCell>
                <mxCell id="40" value="T Data" style="text;strokeColor=#d6b656;fillColor=#fff2cc;align=left;verticalAlign=top;spacingLeft=4;spacingRight=4;overflow=hidden;rotatable=0;points=[[0,0.5],[1,0.5]];portConstraint=eastwest;whiteSpace=wrap;html=1;" vertex="1" parent="34">
                    <mxGeometry y="34" width="160" height="26" as="geometry"/>
                </mxCell>
                <mxCell id="42" value="Node&amp;lt;T&amp;gt; Head" style="text;strokeColor=#d6b656;fillColor=#fff2cc;align=left;verticalAlign=top;spacingLeft=4;spacingRight=4;overflow=hidden;rotatable=0;points=[[0,0.5],[1,0.5]];portConstraint=eastwest;whiteSpace=wrap;html=1;" vertex="1" parent="34">
                    <mxGeometry y="60" width="160" height="26" as="geometry"/>
                </mxCell>
                <mxCell id="38" value="Node&amp;lt;T&amp;gt; Tail" style="text;strokeColor=#d6b656;fillColor=#fff2cc;align=left;verticalAlign=top;spacingLeft=4;spacingRight=4;overflow=hidden;rotatable=0;points=[[0,0.5],[1,0.5]];portConstraint=eastwest;whiteSpace=wrap;html=1;" vertex="1" parent="34">
                    <mxGeometry y="86" width="160" height="26" as="geometry"/>
                </mxCell>
                <mxCell id="43" value="AddFirst(T Data)&lt;div&gt;&lt;br&gt;&lt;/div&gt;" style="text;strokeColor=#d6b656;fillColor=#fff2cc;align=left;verticalAlign=top;spacingLeft=4;spacingRight=4;overflow=hidden;rotatable=0;points=[[0,0.5],[1,0.5]];portConstraint=eastwest;whiteSpace=wrap;html=1;" vertex="1" parent="34">
                    <mxGeometry y="112" width="160" height="26" as="geometry"/>
                </mxCell>
                <mxCell id="44" value="&lt;div&gt;AddLast(T Data)&lt;/div&gt;&lt;div&gt;&lt;br&gt;&lt;/div&gt;" style="text;strokeColor=#d6b656;fillColor=#fff2cc;align=left;verticalAlign=top;spacingLeft=4;spacingRight=4;overflow=hidden;rotatable=0;points=[[0,0.5],[1,0.5]];portConstraint=eastwest;whiteSpace=wrap;html=1;" vertex="1" parent="34">
                    <mxGeometry y="138" width="160" height="26" as="geometry"/>
                </mxCell>
                <mxCell id="45" value="&lt;div&gt;Node&amp;lt;T&amp;gt;&lt;/div&gt;" style="swimlane;fontStyle=1;align=center;verticalAlign=top;childLayout=stackLayout;horizontal=1;startSize=26;horizontalStack=0;resizeParent=1;resizeParentMax=0;resizeLast=0;collapsible=1;marginBottom=0;whiteSpace=wrap;html=1;fillColor=#dae8fc;strokeColor=#6c8ebf;" vertex="1" parent="1">
                    <mxGeometry x="61" y="523.5" width="115" height="111" as="geometry"/>
                </mxCell>
                <mxCell id="46" value="" style="line;strokeWidth=1;fillColor=#dae8fc;align=left;verticalAlign=middle;spacingTop=-1;spacingLeft=3;spacingRight=3;rotatable=0;labelPosition=right;points=[];portConstraint=eastwest;strokeColor=#6c8ebf;" vertex="1" parent="45">
                    <mxGeometry y="26" width="115" height="8" as="geometry"/>
                </mxCell>
                <mxCell id="47" value="T Data" style="text;strokeColor=#6c8ebf;fillColor=#dae8fc;align=left;verticalAlign=top;spacingLeft=4;spacingRight=4;overflow=hidden;rotatable=0;points=[[0,0.5],[1,0.5]];portConstraint=eastwest;whiteSpace=wrap;html=1;" vertex="1" parent="45">
                    <mxGeometry y="34" width="115" height="26" as="geometry"/>
                </mxCell>
                <mxCell id="48" value="Node&amp;lt;T&amp;gt; Next" style="text;strokeColor=#6c8ebf;fillColor=#dae8fc;align=left;verticalAlign=top;spacingLeft=4;spacingRight=4;overflow=hidden;rotatable=0;points=[[0,0.5],[1,0.5]];portConstraint=eastwest;whiteSpace=wrap;html=1;" vertex="1" parent="45">
                    <mxGeometry y="60" width="115" height="25" as="geometry"/>
                </mxCell>
                <mxCell id="49" value="Node&amp;lt;T&amp;gt; Previous&lt;div&gt;&lt;br&gt;&lt;/div&gt;" style="text;strokeColor=#6c8ebf;fillColor=#dae8fc;align=left;verticalAlign=top;spacingLeft=4;spacingRight=4;overflow=hidden;rotatable=0;points=[[0,0.5],[1,0.5]];portConstraint=eastwest;whiteSpace=wrap;html=1;" vertex="1" parent="45">
                    <mxGeometry y="85" width="115" height="26" as="geometry"/>
                </mxCell>
                <mxCell id="53" value="" style="endArrow=classic;html=1;exitX=1;exitY=0.5;exitDx=0;exitDy=0;entryX=0;entryY=0.5;entryDx=0;entryDy=0;" edge="1" parent="1" source="42" target="45">
                    <mxGeometry width="50" height="50" relative="1" as="geometry">
                        <mxPoint x="-43" y="423" as="sourcePoint"/>
                        <mxPoint x="-17" y="424" as="targetPoint"/>
                    </mxGeometry>
                </mxCell>
                <mxCell id="55" value="&lt;div&gt;Node&amp;lt;T&amp;gt;&lt;/div&gt;" style="swimlane;fontStyle=1;align=center;verticalAlign=top;childLayout=stackLayout;horizontal=1;startSize=26;horizontalStack=0;resizeParent=1;resizeParentMax=0;resizeLast=0;collapsible=1;marginBottom=0;whiteSpace=wrap;html=1;fillColor=#dae8fc;strokeColor=#6c8ebf;" vertex="1" parent="1">
                    <mxGeometry x="215" y="523.5" width="115" height="111" as="geometry"/>
                </mxCell>
                <mxCell id="56" value="" style="line;strokeWidth=1;fillColor=#dae8fc;align=left;verticalAlign=middle;spacingTop=-1;spacingLeft=3;spacingRight=3;rotatable=0;labelPosition=right;points=[];portConstraint=eastwest;strokeColor=#6c8ebf;" vertex="1" parent="55">
                    <mxGeometry y="26" width="115" height="8" as="geometry"/>
                </mxCell>
                <mxCell id="57" value="T Data" style="text;strokeColor=#6c8ebf;fillColor=#dae8fc;align=left;verticalAlign=top;spacingLeft=4;spacingRight=4;overflow=hidden;rotatable=0;points=[[0,0.5],[1,0.5]];portConstraint=eastwest;whiteSpace=wrap;html=1;" vertex="1" parent="55">
                    <mxGeometry y="34" width="115" height="26" as="geometry"/>
                </mxCell>
                <mxCell id="58" value="Node&amp;lt;T&amp;gt; Next" style="text;strokeColor=#6c8ebf;fillColor=#dae8fc;align=left;verticalAlign=top;spacingLeft=4;spacingRight=4;overflow=hidden;rotatable=0;points=[[0,0.5],[1,0.5]];portConstraint=eastwest;whiteSpace=wrap;html=1;" vertex="1" parent="55">
                    <mxGeometry y="60" width="115" height="25" as="geometry"/>
                </mxCell>
                <mxCell id="59" value="Node&amp;lt;T&amp;gt; Previous&lt;div&gt;&lt;br&gt;&lt;/div&gt;" style="text;strokeColor=#6c8ebf;fillColor=#dae8fc;align=left;verticalAlign=top;spacingLeft=4;spacingRight=4;overflow=hidden;rotatable=0;points=[[0,0.5],[1,0.5]];portConstraint=eastwest;whiteSpace=wrap;html=1;" vertex="1" parent="55">
                    <mxGeometry y="85" width="115" height="26" as="geometry"/>
                </mxCell>
                <mxCell id="60" value="" style="endArrow=classic;html=1;" edge="1" parent="1" source="48" target="58">
                    <mxGeometry width="50" height="50" relative="1" as="geometry">
                        <mxPoint x="178" y="597" as="sourcePoint"/>
                        <mxPoint x="217" y="597" as="targetPoint"/>
                    </mxGeometry>
                </mxCell>
                <mxCell id="62" value="" style="endArrow=classic;html=1;entryX=1;entryY=0.5;entryDx=0;entryDy=0;exitX=0;exitY=0.5;exitDx=0;exitDy=0;" edge="1" parent="1" source="59" target="49">
                    <mxGeometry width="50" height="50" relative="1" as="geometry">
                        <mxPoint x="188" y="607" as="sourcePoint"/>
                        <mxPoint x="227" y="607" as="targetPoint"/>
                    </mxGeometry>
                </mxCell>
                <mxCell id="63" value="&lt;div&gt;Node&amp;lt;T&amp;gt;&lt;/div&gt;" style="swimlane;fontStyle=1;align=center;verticalAlign=top;childLayout=stackLayout;horizontal=1;startSize=26;horizontalStack=0;resizeParent=1;resizeParentMax=0;resizeLast=0;collapsible=1;marginBottom=0;whiteSpace=wrap;html=1;fillColor=#dae8fc;strokeColor=#6c8ebf;" vertex="1" parent="1">
                    <mxGeometry x="361" y="523.5" width="115" height="113" as="geometry"/>
                </mxCell>
                <mxCell id="64" value="" style="line;strokeWidth=1;fillColor=#dae8fc;align=left;verticalAlign=middle;spacingTop=-1;spacingLeft=3;spacingRight=3;rotatable=0;labelPosition=right;points=[];portConstraint=eastwest;strokeColor=#6c8ebf;" vertex="1" parent="63">
                    <mxGeometry y="26" width="115" height="8" as="geometry"/>
                </mxCell>
                <mxCell id="65" value="T Data" style="text;strokeColor=#6c8ebf;fillColor=#dae8fc;align=left;verticalAlign=top;spacingLeft=4;spacingRight=4;overflow=hidden;rotatable=0;points=[[0,0.5],[1,0.5]];portConstraint=eastwest;whiteSpace=wrap;html=1;" vertex="1" parent="63">
                    <mxGeometry y="34" width="115" height="28" as="geometry"/>
                </mxCell>
                <mxCell id="66" value="Node&amp;lt;T&amp;gt; Next" style="text;strokeColor=#6c8ebf;fillColor=#dae8fc;align=left;verticalAlign=top;spacingLeft=4;spacingRight=4;overflow=hidden;rotatable=0;points=[[0,0.5],[1,0.5]];portConstraint=eastwest;whiteSpace=wrap;html=1;" vertex="1" parent="63">
                    <mxGeometry y="62" width="115" height="25" as="geometry"/>
                </mxCell>
                <mxCell id="67" value="Node&amp;lt;T&amp;gt; Previous&lt;div&gt;&lt;br&gt;&lt;/div&gt;" style="text;strokeColor=#6c8ebf;fillColor=#dae8fc;align=left;verticalAlign=top;spacingLeft=4;spacingRight=4;overflow=hidden;rotatable=0;points=[[0,0.5],[1,0.5]];portConstraint=eastwest;whiteSpace=wrap;html=1;" vertex="1" parent="63">
                    <mxGeometry y="87" width="115" height="26" as="geometry"/>
                </mxCell>
                <mxCell id="68" value="&lt;div&gt;Node&amp;lt;T&amp;gt;&lt;/div&gt;" style="swimlane;fontStyle=1;align=center;verticalAlign=top;childLayout=stackLayout;horizontal=1;startSize=26;horizontalStack=0;resizeParent=1;resizeParentMax=0;resizeLast=0;collapsible=1;marginBottom=0;whiteSpace=wrap;html=1;fillColor=#dae8fc;strokeColor=#6c8ebf;" vertex="1" parent="1">
                    <mxGeometry x="511" y="524.5" width="115" height="111" as="geometry"/>
                </mxCell>
                <mxCell id="69" value="" style="line;strokeWidth=1;fillColor=#dae8fc;align=left;verticalAlign=middle;spacingTop=-1;spacingLeft=3;spacingRight=3;rotatable=0;labelPosition=right;points=[];portConstraint=eastwest;strokeColor=#6c8ebf;" vertex="1" parent="68">
                    <mxGeometry y="26" width="115" height="8" as="geometry"/>
                </mxCell>
                <mxCell id="70" value="T Data" style="text;strokeColor=#6c8ebf;fillColor=#dae8fc;align=left;verticalAlign=top;spacingLeft=4;spacingRight=4;overflow=hidden;rotatable=0;points=[[0,0.5],[1,0.5]];portConstraint=eastwest;whiteSpace=wrap;html=1;" vertex="1" parent="68">
                    <mxGeometry y="34" width="115" height="26" as="geometry"/>
                </mxCell>
                <mxCell id="71" value="Node&amp;lt;T&amp;gt; Next" style="text;strokeColor=#6c8ebf;fillColor=#dae8fc;align=left;verticalAlign=top;spacingLeft=4;spacingRight=4;overflow=hidden;rotatable=0;points=[[0,0.5],[1,0.5]];portConstraint=eastwest;whiteSpace=wrap;html=1;" vertex="1" parent="68">
                    <mxGeometry y="60" width="115" height="25" as="geometry"/>
                </mxCell>
                <mxCell id="72" value="Node&amp;lt;T&amp;gt; Previous&lt;div&gt;&lt;br&gt;&lt;/div&gt;" style="text;strokeColor=#6c8ebf;fillColor=#dae8fc;align=left;verticalAlign=top;spacingLeft=4;spacingRight=4;overflow=hidden;rotatable=0;points=[[0,0.5],[1,0.5]];portConstraint=eastwest;whiteSpace=wrap;html=1;" vertex="1" parent="68">
                    <mxGeometry y="85" width="115" height="26" as="geometry"/>
                </mxCell>
                <mxCell id="73" value="" style="endArrow=classic;html=1;" edge="1" parent="1" source="66" target="71">
                    <mxGeometry width="50" height="50" relative="1" as="geometry">
                        <mxPoint x="478" y="597" as="sourcePoint"/>
                        <mxPoint x="517" y="597" as="targetPoint"/>
                    </mxGeometry>
                </mxCell>
                <mxCell id="74" value="" style="endArrow=classic;html=1;exitX=0;exitY=0.5;exitDx=0;exitDy=0;" edge="1" parent="1" source="72" target="67">
                    <mxGeometry width="50" height="50" relative="1" as="geometry">
                        <mxPoint x="525" y="629" as="sourcePoint"/>
                        <mxPoint x="527" y="607" as="targetPoint"/>
                    </mxGeometry>
                </mxCell>
                <mxCell id="75" value="" style="endArrow=classic;html=1;" edge="1" parent="1" source="58" target="66">
                    <mxGeometry width="50" height="50" relative="1" as="geometry">
                        <mxPoint x="186" y="606" as="sourcePoint"/>
                        <mxPoint x="225" y="606" as="targetPoint"/>
                    </mxGeometry>
                </mxCell>
                <mxCell id="76" value="" style="endArrow=classic;html=1;" edge="1" parent="1" source="67">
                    <mxGeometry width="50" height="50" relative="1" as="geometry">
                        <mxPoint x="225" y="631" as="sourcePoint"/>
                        <mxPoint x="330" y="623" as="targetPoint"/>
                    </mxGeometry>
                </mxCell>
                <mxCell id="77" value="&lt;b&gt;&lt;font style=&quot;font-size: 20px;&quot;&gt;NULL&lt;/font&gt;&lt;/b&gt;" style="rounded=0;whiteSpace=wrap;html=1;fillColor=#ffe6cc;strokeColor=#d79b00;" vertex="1" parent="1">
                    <mxGeometry x="669" y="556.5" width="120" height="80" as="geometry"/>
                </mxCell>
                <mxCell id="78" value="" style="endArrow=classic;html=1;exitX=1;exitY=0.5;exitDx=0;exitDy=0;" edge="1" parent="1" source="71" target="77">
                    <mxGeometry width="50" height="50" relative="1" as="geometry">
                        <mxPoint x="486" y="608" as="sourcePoint"/>
                        <mxPoint x="521" y="607" as="targetPoint"/>
                    </mxGeometry>
                </mxCell>
            </root>
        </mxGraphModel>
    </diagram>
</mxfile>